<?xml version="1.0" encoding="UTF-8"?>
<!DOCTYPE svg PUBLIC "-//W3C//DTD SVG 1.1//EN" "http://www.w3.org/Graphics/SVG/1.1/DTD/svg11.dtd">
<svg version="1.1" xmlns="http://www.w3.org/2000/svg" xmlns:xlink="http://www.w3.org/1999/xlink" x="0" y="0" width="848" height="1040" viewBox="0, 0, 848, 1040">
  <defs>
    <clipPath id="Clip_1">
      <path d="M0.06,0.04 L847.504,0.04 L847.504,1040 L0.06,1040 z"/>
    </clipPath>
    <clipPath id="Clip_2">
      <path d="M0.06,0.04 L847.504,0.04 L847.504,1040 L0.06,1040 z"/>
    </clipPath>
  </defs>
  <g id="Layer_1">
    <g clip-path="url(#Clip_1)">
      <path d="M425.378,1033.03 C424.908,1038.46 421.91,1039.97 416.613,1040 C411.069,1040.04 409.878,1036.87 409.026,1032.71 C399.464,986.065 392.274,939.076 387.718,890.524 C383.871,894.706 380.229,899.101 376.139,903.03 C363.942,914.749 350.566,924.796 334.787,931.342 C310.841,941.277 289.482,937.92 270.364,919.882 C253.62,904.085 240.157,885.785 227.744,866.59 C217.355,850.525 207.765,833.978 199.223,816.873 C196.817,812.054 193.873,810.438 188.724,809.79 C163.776,806.648 143.693,795.302 130.436,773.344 C120.723,757.254 119.799,739.674 122.316,721.663 C124.377,706.913 128.061,692.654 136.112,679.833 C137.844,677.074 141.9,674.817 141.364,671.977 C140.836,669.184 137.229,667.007 135.064,664.482 C120.347,647.321 107.396,629.053 100.737,607.115 C93.37,582.843 104.231,559.399 127.163,549.412 C139.665,543.967 152.641,546.673 162.718,555.847 C184.77,575.926 195.538,601.342 199.124,630.368 C200.363,640.397 200.435,640.388 210.513,640.392 C245.199,640.408 273.33,662.448 283.975,698.187 C289.365,716.286 288.873,734.285 282.264,752.068 C281.633,753.767 280.25,755.371 281.953,757.575 C292.515,771.245 302.919,785.036 313.553,799.022 C330.723,780.202 347.665,761.643 364.594,743.072 C374.461,732.246 384.28,721.376 394.189,710.589 C395.765,708.872 396.906,707.886 393.847,706.36 C329.858,674.448 291.717,621.055 268.566,555.268 C264.816,544.613 261.417,533.834 258.961,522.801 C258.261,519.657 256.775,518.561 253.69,518.336 C246.552,517.815 239.477,516.739 232.559,514.81 C212.596,509.243 201.326,495.043 200.006,474.346 C199.012,458.766 202.592,444.906 214.267,433.932 C216.592,431.747 214.741,430.348 213.965,428.827 C204.192,409.662 196.127,389.846 191.094,368.884 C176.902,309.779 188.216,256.435 227.242,209.381 C227.764,208.751 228.268,208.107 229.546,206.518 C222.319,209.059 216.169,211.289 209.973,213.385 C198.929,217.121 187.712,220.177 176.091,221.509 C169.762,222.234 163.465,222.338 157.37,220.02 C149.42,216.997 147.315,211.901 151.07,204.424 C177.486,151.821 214.362,108.955 266.658,80.491 C298.939,62.921 333.591,53.088 370.017,49.327 C373.411,48.977 375.311,47 377.747,45.464 C407.849,26.479 440.16,12.554 475.162,6.128 C584.128,-13.877 678.392,15.504 757.187,93.041 C795.143,130.39 819.154,176.202 832.969,227.504 C839.47,251.646 844.772,276.03 846.704,300.959 C850.087,344.587 842.74,386.48 824.557,426.347 C822.934,429.905 822.787,431.828 825.926,434.999 C840.314,449.528 841.811,467.371 836.946,486.065 C832.407,503.51 819.432,512.042 802.736,515.754 C797.231,516.978 791.594,517.754 785.974,518.269 C782.907,518.55 781.825,519.956 781.161,522.662 C775.322,546.448 767.248,569.445 756.551,591.496 C734.352,637.257 702.749,674.493 658.161,699.948 C657.455,700.352 656.797,700.841 656.055,701.33 C677.48,732.328 693.694,765.679 703.426,801.986 C716.816,851.934 716.809,901.382 695.993,949.586 C681.871,982.288 659.725,1009.1 633.279,1032.58 C632.169,1033.56 630.64,1034.48 630.193,1035.74 C628.2,1041.37 623.545,1039.82 619.644,1039.73 C615.859,1039.64 615.2,1036.34 614.48,1033.4 C613.508,1031.15 613.738,1028.86 614.145,1026.53 C619.784,994.195 624.408,961.707 628.314,929.126 C630.889,907.649 633.212,886.134 634.692,864.542 C635.187,857.328 641.056,852.27 646.872,854.169 C650.902,855.486 653.06,858.308 653.325,862.708 C653.778,870.242 652.746,877.699 652.034,885.127 C649.16,915.123 645.656,945.052 641.316,974.878 C639.887,984.702 638.307,994.508 636.926,1004.82 C653.339,988.161 666.726,970 676.601,949.442 C688.222,925.253 694.231,899.777 694.758,872.768 C695.904,814.07 675.256,762.615 643.833,714.504 C641.977,711.662 640.033,710.788 636.773,712.163 C628.177,715.792 619.512,719.281 610.53,721.864 C607.276,722.799 606.326,725.218 605.555,728.089 C600.104,748.364 595.14,768.765 589.856,789.083 C588.671,793.637 587.504,798.113 583.651,801.325 C582.195,802.54 581.798,804.43 581.29,806.204 C565.71,860.669 549.569,914.972 533.951,969.427 C532.206,975.512 530.339,981.563 528.602,987.652 C528.009,989.733 527.381,991.821 526.117,993.626 C522.147,999.297 515.195,999.423 510.999,993.936 C509.539,992.028 508.906,989.798 508.262,987.551 C491.235,928.126 473.965,868.77 457.032,809.318 C456.146,806.21 455.078,803.347 452.431,801.243 C449.775,799.132 449.117,795.942 448.364,792.86 C443.219,771.82 437.971,750.802 433.165,729.682 C431.995,724.539 429.647,721.722 424.506,720.15 C411.877,716.288 412.195,716.268 403.594,726.157 C395.405,735.574 386.795,744.632 378.403,753.877 C365.983,767.559 353.47,781.156 341.079,794.864 C334.269,802.397 327.484,809.966 320.418,817.262 C315.265,822.582 309.135,822.023 304.243,815.602 C295.458,804.071 286.57,792.618 277.916,780.986 C272.573,773.803 272.396,773.731 266.786,780.672 C254.824,795.473 239.579,804.939 221.155,809.465 C216.185,810.686 215.83,811.303 217.736,814.851 C231.873,841.164 247.235,866.697 266.092,889.967 C272.605,898.004 279.797,905.336 288.019,911.728 C298.435,919.826 309.61,921.255 321.932,917.305 C337.033,912.464 349.692,903.677 361.216,893.143 C371.07,884.135 380.041,874.251 387.841,863.396 C390.426,859.799 394.121,858.034 397.67,855.93 C399.915,854.598 401.59,856.015 402.777,857.67 C404.945,860.693 406.799,864.15 406.07,867.891 C404.243,877.26 405.877,886.558 406.619,895.774 C408.609,920.495 411.355,945.156 415.367,969.652 C418.437,988.398 421.513,1007.14 425.459,1025.73 C425.973,1028.15 426.804,1030.61 425.378,1033.03" fill="#6E4100"/>
    </g>
    <path d="M425.378,1033.03 C421.042,1011.02 416.835,988.988 413.498,966.802 C410.308,945.595 407.536,924.334 405.919,902.94 C405.18,893.157 404.08,883.361 404.127,873.576 C404.15,868.789 405.549,863.973 402.689,859.694 C401.663,858.158 401.747,855.472 397.086,857.879 C388.026,862.557 384.459,871.252 378.24,877.848 C362.587,894.449 346.434,910.026 324.353,918.024 C308.79,923.661 295.531,920.564 283.267,909.753 C271.038,898.973 261.034,886.381 251.65,873.221 C238.287,854.48 226.851,834.561 215.826,814.384 C213.794,810.667 214.212,809.58 218.488,808.7 C239.46,804.385 256.034,793.071 268.861,776.071 C269.762,774.878 270.698,773.71 271.662,772.567 C271.848,772.347 272.239,772.3 272.768,772.073 C283.633,786.316 294.511,800.617 305.44,814.879 C310.329,821.261 315.075,821.2 320.562,815.162 C339.487,794.34 358.502,773.6 377.481,752.826 C388.037,741.273 398.655,729.775 409.09,718.114 C411.379,715.557 413.354,714.489 416.707,716.143 C421.751,718.631 428.912,718.156 432.103,722.37 C435.246,726.52 435.334,733.012 436.665,738.5 C441.13,756.913 445.571,775.333 449.974,793.761 C450.729,796.922 451.613,799.902 454.885,801.41 C456.856,802.318 456.962,804.328 457.453,806.035 C472.998,860.037 488.515,914.046 504.039,968.053 C506.014,974.924 508.06,981.776 509.966,988.666 C511.156,992.965 513.041,996.602 518.09,996.768 C523.393,996.943 525.567,993.357 526.879,988.83 C538.548,948.59 550.259,908.361 561.948,868.126 C568.162,846.735 574.353,825.338 580.574,803.949 C580.895,802.846 581.097,801.229 581.871,800.814 C587.634,797.723 587.633,791.807 588.989,786.641 C594.352,766.222 599.624,745.778 604.792,725.309 C605.395,722.918 606.339,721.522 608.768,720.865 C618.908,718.121 628.656,714.257 638.238,710.003 C640.668,708.925 641.911,709.172 643.466,711.46 C669.149,749.273 687.333,790.174 694.047,835.646 C700.138,876.896 695.158,916.592 675.896,954.026 C665.672,973.895 652.091,991.297 636.683,1007.35 C636.369,1007.68 635.875,1007.83 634.969,1008.35 C636.493,997.951 637.941,987.994 639.414,978.04 C642.746,955.512 645.593,932.923 648.007,910.278 C649.594,895.395 651.276,880.521 652.042,865.568 C652.388,858.823 649.499,855.022 644.432,854.968 C639.501,854.915 636.483,858.862 636.009,865.326 C634.183,890.2 631.428,914.978 628.349,939.728 C624.859,967.77 620.77,995.718 616.033,1023.57 C615.477,1026.85 615.001,1030.13 614.484,1033.41 C613.334,1033.26 612.187,1033 611.04,1033 C549.153,1032.99 487.266,1033.01 425.378,1033.03" fill="#4576AD"/>
    <g clip-path="url(#Clip_2)">
      <path d="M91.117,516.894 C91.007,520.882 89.255,523.929 85.669,525.717 C81.898,527.596 77.993,527.448 74.987,524.489 C61.958,511.663 49.006,498.754 36.245,485.662 C32.351,481.667 32.879,475.337 36.671,471.704 C40.606,467.935 46.433,467.808 50.579,471.909 C63.222,484.415 75.708,497.08 88.242,509.697 C90.203,511.67 91.241,514.053 91.117,516.894" fill="#FF7164"/>
      <path d="M11.287,549.524 C14.929,549.85 18.973,551.877 23.106,553.565 C32.635,557.458 41.413,562.958 51.157,566.457 C56.485,568.371 58.538,574.159 56.53,579.282 C54.627,584.136 49.632,586.676 44.305,584.992 C39.887,583.596 35.525,581.878 31.368,579.833 C23.319,575.873 15.368,571.762 6.867,568.77 C1.674,566.942 -0.767,562.262 0.212,557.328 C1.148,552.617 5.307,549.411 11.287,549.524" fill="#FF7164"/>
    </g>
    <path d="M108.868,433.841 C109.364,429.197 111.589,425.864 116.181,424.825 C120.729,423.796 125.095,424.629 127.304,429.207 C133.291,441.61 138.236,454.465 142.677,467.489 C144.223,472.023 141.251,477.011 136.815,478.836 C132.171,480.747 126.398,479.201 124.408,474.562 C119.051,462.077 114.175,449.385 109.168,436.751 C108.817,435.865 108.954,434.785 108.868,433.841" fill="#FF7164"/>
    <path d="M765.079,519.948 C758.753,546.955 749.053,572.715 735.663,596.982 C698.83,663.735 642.691,703.555 567.067,713.258 C518.775,719.455 470.318,718.684 423.592,701.655 C368.724,681.658 329.263,644.284 302.284,593.123 C290.695,571.147 281.883,548.053 275.973,523.887 C277.944,523.011 277.995,522.936 279.685,524.071 C291.001,531.668 303.648,534.326 317.066,534.618 C336.871,535.05 355.733,516.326 359.725,501.572 C362.824,490.117 358.7,480.088 352.678,470.903 C332.667,440.377 290.747,442.391 271.19,474.559 C270.062,476.415 269.824,479.699 266.232,478.912 C255.617,409.317 262.769,341.678 291.17,277.149 C321.614,207.978 374.923,165.8 448.561,149.172 C451.574,148.492 453.463,148.412 454.725,152.261 C471.552,203.59 497.812,249.45 535.475,288.357 C554.649,308.165 576.729,324.02 603.139,333.108 C611.807,336.091 615.833,333.537 616.571,324.584 C617.532,312.928 615.688,301.319 615.904,290.357 C621.34,295.432 627.143,300.72 632.804,306.155 C657.386,329.76 686.081,346.893 717.359,359.952 C723.268,362.419 727.43,360.424 729.368,354.364 C732.131,345.723 733.115,336.809 733.139,327.77 C733.153,322.177 733.142,316.584 733.142,310.037 C744.481,324.072 756.341,336.323 769.954,346.78 C771.476,347.949 771.452,349.733 771.717,351.287 C778.95,393.719 781.536,436.234 773.769,478.911 C770.295,479.888 770.121,476.707 769.12,474.958 C761.953,462.43 751.549,454.625 737.026,453.103 C720.054,451.324 706.524,457.976 695.934,470.949 C692.669,474.95 690.441,479.604 688.59,484.497 C682.462,500.693 689.431,514.452 701.69,522.224 C714.272,530.2 728.313,533.323 743.276,530.151 C749.998,528.726 755.425,524.896 760.679,520.722 C763.041,518.846 763.106,518.928 765.079,519.948" fill="#FEF8EA"/>
    <path d="M314.956,78.023 C330.978,70.716 348.233,68.489 365.389,66.007 C375.42,64.555 385.548,63.905 395.707,63.795 C403.611,63.71 406.949,58.858 403.898,51.553 C402.638,48.536 404.735,48.515 406.128,47.768 C428.246,35.908 451.659,27.511 476.138,22.155 C501.123,16.688 526.474,14.574 551.976,16.145 C610.749,19.765 664.01,38.991 711.38,74.059 C731.52,88.968 749.559,106.138 764.822,126.106 C764.75,127.424 764.866,128.747 764.308,130.025 C757,146.764 741.513,162.407 719.044,162.266 C714.411,162.237 709.77,162.478 705.081,161.899 C713.624,169.637 723.778,173.345 735.072,174.602 C754.676,176.783 773.048,172.154 790.994,164.915 C808.809,197.325 818.922,232.356 825.919,268.399 C830.047,289.665 833.008,311.164 831.719,332.851 C829.915,363.174 822.091,392.147 809.945,419.972 C808.792,422.613 807.493,423.23 804.585,422.325 C794.353,419.14 794.239,419.279 794.044,408.497 C793.748,392.176 791.656,376.024 789.506,359.439 C792.732,359.57 795.529,361.285 798.664,361.065 C802.958,360.763 805.489,358.66 806.216,354.494 C806.9,350.571 805.423,347.238 801.713,346.051 C783.143,340.11 770.184,326.565 757.195,313.23 C746.831,302.59 738.044,290.634 731.19,277.365 C729.129,273.375 726.061,271.113 721.476,272.387 C717.159,273.586 715.795,276.784 715.794,281.185 C715.79,296.506 717.688,311.769 717.096,327.103 C716.949,330.923 716.834,334.722 716.349,338.541 C715.926,341.879 714.712,341.279 712.566,340.299 C674.26,322.813 641.967,297.817 616.851,263.829 C616.554,263.427 616.247,263.031 615.974,262.613 C613.256,258.453 609.945,255.128 604.498,257.063 C599.257,258.925 599.113,263.598 599.078,268.266 C598.969,282.75 599.848,297.193 600.802,311.631 C601.1,316.143 598.833,314.218 597.004,313.368 C582.549,306.651 569.478,297.813 557.688,287.135 C518.145,251.323 491.979,206.755 473.273,157.391 C469.505,147.449 466.446,137.27 465.472,126.545 C464.965,120.964 461.285,117.737 456.903,118.078 C452.021,118.457 448.629,122.71 449.467,128.561 C449.973,132.09 448.684,132.674 445.769,133.339 C417.849,139.712 391.275,149.519 366.843,164.709 C332.254,186.213 305.568,215.143 286.128,250.811 C266.708,286.444 255.532,324.718 249.904,364.767 C248.028,378.116 246.844,391.514 245.965,404.951 C243.555,404.757 243.366,402.589 242.709,401.033 C230.376,371.828 223.219,341.534 224.815,309.666 C225.815,289.709 230.682,270.555 238.883,252.26 C247.638,232.732 259.828,215.549 274.567,200.193 C281.576,192.892 289.162,186.109 297.668,180.501 C298.36,180.315 297.304,179.838 297.766,180.318 C297.84,180.395 297.728,180.514 297.43,180.673 C290.661,184.277 283.708,187.489 276.574,190.29 C274.821,190.979 273.006,192.399 270.971,190.856 C274.127,187.316 278.396,185.329 282.254,182.77 C287.161,179.513 288.518,175.208 285.973,170.93 C283.702,167.112 279.609,166.196 274.634,168.56 C250.583,179.99 226.484,191.303 201.033,199.388 C198.342,200.243 195.607,200.962 192.893,201.743 C191.715,199.346 193.39,197.555 194.365,195.759 C210.039,166.889 229.098,140.536 253.501,118.39 C269.813,103.587 287.536,90.651 307.48,81.003 C308.681,80.422 309.919,79.955 311.166,79.508 C312.306,78.703 313.771,78.721 314.956,78.023" fill="#BB9D8C"/>
    <path d="M271.506,722.488 C272.082,764.963 226.677,813.442 169.582,787.763 C148.105,778.104 136.9,760.545 137.285,736.585 C137.527,721.504 140.238,706.826 147.066,693.18 C149.771,687.774 153.232,683.094 158.845,680.064 C164.542,676.988 164.443,670.951 159.198,666.096 C142.912,651.016 129.765,633.591 120.23,613.507 C118.015,608.843 116.26,603.984 115.13,598.947 C111.853,584.344 121.158,568.023 135.481,563.403 C141.79,561.368 147.072,563.396 151.899,567.822 C168.908,583.419 178.62,602.757 182.051,625.425 C182.872,630.847 183.712,636.267 184.609,641.677 C184.967,643.838 185.048,645.834 184.12,647.978 C182.842,650.929 183.314,653.91 185.537,656.35 C187.915,658.96 190.979,659.508 194.231,658.475 C201.181,656.267 208.328,656.003 215.466,656.552 C240.727,658.494 261.488,677.088 269.044,704.261 C270.703,710.227 271.64,716.283 271.506,722.488" fill="#FEF8EA"/>
    <path d="M266.232,478.912 C270.371,475.683 271.789,470.511 275.094,466.628 C293.373,445.159 326.438,440.119 347.633,462.212 C355.935,470.866 361.579,481.325 361.949,493.704 C362.329,506.393 355.661,516.12 346.369,523.49 C325.347,540.164 299.984,540.021 277.666,524.019 C277.083,523.6 276.593,523.239 275.973,523.888 C271.505,509.16 268.714,494.069 266.232,478.912" fill="#FFD5BA"/>
    <path d="M765.079,519.948 C762.126,519.051 761.182,521.999 759.678,523.232 C748.837,532.126 736.564,534.255 723.186,531.721 C710.668,529.349 699.086,525.06 691.219,514.24 C681.843,501.343 683.938,488.214 691.31,475.429 C700.129,460.135 714.067,451.777 731.28,451.28 C747.951,450.799 761.237,458.677 769.837,473.512 C770.946,475.425 771.029,478.162 773.769,478.91 C771.537,492.731 769.114,506.51 765.079,519.948" fill="#FFD5BA"/>
    <path d="M270.971,190.856 C280.384,187.995 288.934,183.129 297.922,179.281 C299.082,178.785 300.152,177.859 302.173,178.234 C295.391,183.543 289.007,188.509 283.08,194.04 C251.27,223.73 231.193,259.386 226.874,303.243 C223.717,335.3 230.242,365.733 241.816,395.367 C243.081,398.607 244.576,401.758 245.965,404.951 C246.226,420.214 246.206,420.186 231.432,423.464 C229.952,423.792 229.38,423.549 228.745,422.302 C204.388,374.439 191.595,325.013 209.601,271.87 C220.494,239.722 240.849,214.218 267.19,193.247 C268.35,192.324 269.707,191.647 270.971,190.856" fill="#FEFEFE"/>
    <path d="M518.255,959.069 C514.06,944.594 510.042,930.741 506.033,916.886 C505.156,913.855 504.647,910.669 503.398,907.804 C497.771,894.899 498.707,881.867 501.218,868.401 C505.267,846.698 508.246,824.798 512.085,803.054 C513.103,797.284 511.111,792.656 509.003,787.788 C505.011,778.566 505.02,778.562 513.575,773.804 C517.181,771.798 527.751,774.283 530.186,777.599 C531.025,778.741 530.323,779.594 529.857,780.288 C522.134,791.783 522.729,803.783 525.671,816.857 C530.733,839.353 534.273,862.192 538.497,884.879 C538.867,886.863 539.21,888.763 538.623,890.774 C532.201,912.774 525.814,934.784 519.399,956.786 C519.231,957.362 518.86,957.878 518.255,959.069" fill="#FF7164"/>
    <path d="M311.968,79.859 C284.476,93.598 260.201,111.661 239.346,134.237 C220.63,154.498 205.143,177.015 192.893,201.743 C185.206,203.915 177.454,205.698 169.571,205.946 C168.728,204.914 169.272,204.246 169.653,203.533 C195.151,155.805 230.235,117.453 278.72,92.289 C289.036,86.935 299.602,82.079 310.814,78.809 C311.965,78.316 312.109,78.93 311.968,79.859" fill="#FEFEFE"/>
    <path d="M790.994,164.915 C791.09,166.352 790.179,166.92 788.999,167.356 C769.248,174.655 749.177,179.293 727.971,174.929 C717.693,172.814 708.025,167.676 701.442,160.613 C702.676,159.377 704.177,159.871 705.506,160.044 C734.714,163.849 751.899,154.247 764.011,127.322 C764.208,126.883 764.549,126.509 764.822,126.106 C774.915,138.119 783.278,151.299 790.994,164.915" fill="#FEFEFE"/>
    <path d="M245.808,436.315 C245.877,457.353 249.511,477.965 253.403,498.517 C254.148,502.447 252.698,502.232 250.023,501.886 C244.746,501.203 239.523,500.276 234.466,498.594 C223.978,495.106 218.321,487.746 216.408,476.918 C212.679,455.8 224.868,438.689 245.808,436.315" fill="#FEF8EA"/>
    <path d="M794.127,436.511 C819.157,439.787 832.055,467.402 818.689,488.305 C816.586,491.593 813.78,494.148 810.348,496.026 C803.641,499.696 796.277,500.926 788.835,501.905 C786.655,502.191 785.986,501.781 786.451,499.273 C788.391,488.809 790.209,478.316 791.76,467.789 C793.284,457.444 794.345,447.037 794.127,436.511" fill="#FEF8EA"/>
    <path d="M450.191,726.527 C461.91,726.713 471.401,730.712 479.968,738.077 C488.403,745.33 497.702,751.58 506.553,758.218 C506.645,760.021 505.097,760.004 504.212,760.482 C491.923,767.106 479.567,773.604 467.304,780.273 C464.795,781.637 463.627,782.325 462.76,778.547 C458.782,761.222 454.444,743.98 450.191,726.527" fill="#FEFEFE"/>
    <path d="M588.004,726.048 C583.12,745.051 578.516,762.962 573.823,781.222 C559.569,774.114 545.786,767.241 532.07,760.401 C531.91,758.449 533.479,758.098 534.437,757.376 C546.111,748.58 557.84,739.858 569.516,731.064 C574.772,727.105 581.237,728.308 588.004,726.048" fill="#FEFEFE"/>
    <path d="M548.917,852.718 C547.308,844.286 545.666,835.859 544.099,827.419 C542.612,819.412 541.508,811.32 539.667,803.397 C538.055,796.457 542.977,791.929 545.028,786.355 C545.612,784.768 547.049,785.911 548.006,786.372 C553.239,788.894 558.419,791.531 563.676,794 C565.655,794.929 566.289,795.944 565.61,798.225 C560.22,816.353 554.969,834.521 549.676,852.678 C549.423,852.691 549.17,852.705 548.917,852.718" fill="#FEFEFE"/>
    <path d="M487.187,851.259 C482.135,833.746 477.094,816.23 472.013,798.725 C471.511,796.995 471.991,795.905 473.556,795.078 C478.546,792.441 483.52,789.776 488.469,787.064 C490.12,786.159 491.08,786.491 491.79,788.257 C494.183,794.202 496.784,799.691 495.283,806.804 C492.198,821.42 490.332,836.292 487.964,851.058 C487.705,851.125 487.446,851.192 487.187,851.259" fill="#FEFEFE"/>
    <path d="M498.599,732.097 C513.158,732.097 526.649,732.097 541.237,732.097 C534.121,737.438 527.7,742.216 521.338,747.07 C520.136,747.987 519.318,747.66 518.285,746.878 C512.005,742.126 505.693,737.415 498.599,732.097" fill="#FEF5E2"/>
    <path d="M311.968,79.859 C311.583,79.509 311.198,79.159 310.814,78.809 C312.02,77.627 313.439,77.57 314.956,78.023 C314.371,79.304 313.12,79.5 311.968,79.859" fill="#EDE7E2"/>
    <path d="M519.637,634.77 C489.244,633.67 462.929,624.64 442.86,601.346 C442.317,600.716 441.724,600.117 441.254,599.436 C438.862,595.971 438.802,592.555 441.937,589.556 C444.804,586.813 449.318,587.126 452.108,590.52 C469.201,611.313 492.027,620.185 518.041,620.489 C544.575,620.799 568.115,612.448 585.885,591.452 C589.653,587.001 593.612,586.097 597.022,588.842 C600.48,591.626 600.369,596.172 596.519,600.722 C579.488,620.846 557.294,630.909 531.508,633.854 C527.378,634.325 523.214,634.501 519.637,634.77" fill="#6E4100"/>
    <path d="M435.898,423.969 C435.705,429.378 434.869,434.924 432.068,440.003 C426.472,450.152 413.304,451.779 405.58,443.292 C395.845,432.595 397.468,409.358 408.558,400.661 C418.238,393.068 427.141,395.157 432.34,406.254 C434.925,411.773 435.827,417.638 435.898,423.969" fill="#6E4100"/>
    <path d="M640.154,423.777 C640.423,428.716 639.507,434.047 637.07,439.103 C634.014,445.442 628.822,448.594 621.968,448.659 C615.426,448.721 610.487,445.535 607.566,439.683 C602.163,428.853 602.452,417.903 607.616,407.094 C609.941,402.227 614.116,399.139 619.023,397.187 C625.245,394.711 630.895,396.779 634.946,402.725 C638.347,407.716 640.148,414.777 640.154,423.777" fill="#6E4100"/>
    <path d="M420.463,249.082 C430.238,249.635 437.424,254.218 442,262.885 C443.748,266.197 443.225,269.175 440.077,271.111 C436.708,273.184 433.791,272.134 431.53,268.89 C424.791,259.22 417.247,258.557 409.123,267.1 C406.159,270.217 403.117,271.338 399.546,268.666 C396.672,266.514 396.951,262.586 400.022,259.017 C405.393,252.774 412.26,249.538 420.463,249.082" fill="#6E4100"/>
    <path d="M521.704,461.017 C520.346,460.994 519.096,460.654 517.93,459.917 C514.348,457.654 509.588,446.343 510.491,442.123 C511.204,438.788 513.32,436.874 516.664,436.549 C519.998,436.225 522.703,437.635 523.792,440.803 C525.032,444.413 526.356,447.904 528.133,451.319 C530.499,455.863 526.822,461.059 521.704,461.017" fill="#6E4300"/>
    <path d="M169.51,744.952 C169.364,743.299 169.041,740.654 168.916,737.999 C168.749,734.445 170.438,731.929 173.658,730.508 C176.682,729.175 179.51,729.695 182.044,731.766 C187.097,735.897 190.22,735.157 193.135,729.106 C198.129,718.74 191.582,702.869 180.668,699.303 C177.425,698.243 174.85,696.795 174.043,693.315 C172.667,687.38 176.964,682.661 183.117,683.528 C190.397,684.553 196.264,688.349 200.715,694.011 C210.289,706.193 213.895,719.756 208.165,734.659 C204.66,743.775 198.095,749.923 187.899,750.922 C185.202,751.186 185.355,752.763 184.921,754.554 C181.998,766.647 171.425,772.565 160.209,768.476 C155.929,766.916 153.688,763.232 154.615,759.154 C155.613,754.77 158.489,752.694 162.901,752.814 C169.396,752.99 169.584,752.842 169.51,744.952" fill="#6E4100"/>
  </g>
</svg>
