<?xml version="1.0" encoding="UTF-8"?>
<!DOCTYPE svg PUBLIC "-//W3C//DTD SVG 1.1//EN" "http://www.w3.org/Graphics/SVG/1.1/DTD/svg11.dtd">
<svg version="1.1" xmlns="http://www.w3.org/2000/svg" xmlns:xlink="http://www.w3.org/1999/xlink" x="0" y="0" width="404" height="712" viewBox="0, 0, 404, 712">
  <g id="Layer_1">
    <g>
      <path d="M368.4,462.432 C368.4,462.432 374.964,471.576 373.88,475.892 C373.292,478.212 363.516,549.76 358.292,564.42 C352.34,581.064 346.984,587.728 330.148,584.348 C308.508,579.992 259.18,513.78 259.18,513.78 L256.044,529.436 L241.436,622.676 C241.436,622.676 247.88,679.868 252.548,709.2 L18.92,709.2 C18.92,709.2 2.236,516.908 8.908,472.24 C14.56,434.408 20.22,429.516 33.332,421.488 C56.924,407.04 111.972,386.492 111.972,386.492 C111.972,386.492 122.492,374.792 134.436,369.16 L170.368,369.104 C181.748,373.928 192.592,387.18 192.592,387.18 C192.592,387.18 244.988,407.792 268.588,422.24 C268.588,422.24 280.512,428.092 291.176,444.348 C298.86,456.06 320.032,503.944 320.032,503.944 L322.232,495.324 C326.54,471.692 330.8,447.748 330.8,447.748 C330.8,447.748 334.608,444.74 338.96,446.392 L368.4,462.432" fill="#8A8B8A"/>
      <path d="M180.924,352.868 C238.784,346.724 264.032,306.7 264.032,306.7 C280.828,276.752 296.844,213.024 296.844,213.024 C314.296,120.2 244.696,18.152 205.12,23.32 C194.164,4.632 152.992,-3.956 112.832,10.692 C72.668,25.336 -16.5,90.396 6.548,213.024 C6.548,213.024 15.868,269.532 44.532,311.2 C64.436,340.132 96.032,347.224 122.472,352.868" fill="#483631"/>
      <path d="M120.404,29.692 C159.176,15.048 198.924,23.636 209.5,42.316 C219.604,36.1 264.136,60.196 284.956,111.94 C267.964,47.328 214.548,16.676 203.284,23.604 C192.712,4.916 152.968,-3.672 114.188,10.98 C75.42,25.624 -17.256,82.024 4.996,204.652 L8.22,211.652 C-1.468,95.652 83.36,43.68 120.404,29.692" fill="#B28D79"/>
    </g>
    <path d="M73.056,44.368 C73.056,44.368 106.036,75.876 161.136,76.06 C161.136,76.06 176.784,80.396 148.572,82.124 C120.352,83.876 71.268,79.32 53.384,67.804 L73.056,44.368" fill="#B28D79"/>
    <path d="M182.3,352.724 C235.032,344.224 253.132,322.016 263.532,305.952 C283.284,275.452 296.844,213.024 296.844,213.024 C314.296,120.2 244.696,18.152 205.12,23.32 C194.164,4.632 152.992,-3.956 112.832,10.692 C72.668,25.336 -16.5,90.396 6.548,213.024 C6.548,213.024 18.536,273.664 41.532,307.7 C54.032,326.2 72.032,343.224 122.472,352.868" fill-opacity="0" stroke="#1A1919" stroke-width="5.6" stroke-linecap="round" stroke-linejoin="round"/>
    <path d="M253.012,548.796 C221.712,564.14 183.392,573.176 141.988,573.176 C89.712,573.176 42.352,558.772 7.824,535.452 C9.472,591.828 14.884,666.188 17.492,699.892 C17.496,699.948 17.5,700.004 17.504,700.06 C17.596,701.252 17.684,702.376 17.768,703.468 C17.788,703.7 17.808,703.948 17.828,704.176 C18.012,706.572 18.18,700.032 18.328,701.84 C18.328,701.86 18.332,701.888 18.332,701.908 C18.552,704.712 18.72,706.772 18.82,707.972 C18.884,708.772 18.92,709.2 18.92,709.2 L252.548,709.2 C247.88,679.868 241.436,622.676 241.436,622.676 L253.012,548.796" fill="#717271"/>
    <path d="M129.672,382.364 L131.104,378.06 C134.752,372.06 137.476,363.292 137.876,357.552 L165.312,357.288 C165.688,362.944 168.384,373.4 172.092,379.492 L174,382.74 L151.596,413.924 C151.596,413.924 127.028,385.824 129.672,382.364" fill="#F8D2B5"/>
    <path d="M136.452,358.012 L167.368,358.012 L167.368,365.516 C167.368,365.516 157.932,380.14 133.792,375.14 L136.452,358.012" fill="#DB9D88"/>
    <path d="M151.704,576.324 C173.776,492.94 178.932,425.512 172.744,380.568 L172.092,380.388 C172.092,380.388 172.552,389.164 156.792,397.2 L151.596,399.452 L146.4,397.2 C130.644,389.164 131.104,380.388 131.104,380.388 L130.448,380.568 C124.792,421.648 131.572,496.944 149.636,574.536 L151.704,576.324" fill="#FFFFFE"/>
    <path d="M131.968,423.724 L151.38,401.508 L170.972,424.076 L150.68,416.552 L131.968,423.724" fill="#CBCCCB"/>
    <g>
      <path d="M190.848,385.74 L219.912,416.74 L198.704,430.116 L220.048,448.256 C220.048,448.256 186.292,523.768 152.532,586.536 M112.34,385.74 L83.284,416.74 L104.488,430.116 L83.144,448.256 C83.144,448.256 115.776,535.376 152.2,597.204" fill-opacity="0" stroke="#1A1919" stroke-width="4" stroke-linecap="round" stroke-linejoin="round"/>
      <path d="M18.92,709.2 C18.92,709.2 2.236,516.908 8.908,472.24 C14.56,434.408 20.22,429.516 33.332,421.488 C56.924,407.04 111.972,386.492 111.972,386.492 C111.972,386.492 122.492,374.792 134.436,369.16 M136.796,357.552 C136.36,363.292 134.392,374.568 130.448,380.568 C124.26,425.512 132.956,512.88 155.032,596.268" fill-opacity="0" stroke="#1A1919" stroke-width="5.6" stroke-linecap="round" stroke-linejoin="round"/>
      <path d="M155.032,596.268 L155.032,707.176" fill-opacity="0" stroke="#1A1919" stroke-width="4" stroke-linecap="round" stroke-linejoin="round"/>
    </g>
    <path d="M150.596,578.712 C172.668,495.324 178.932,425.512 172.744,380.568 C168.804,374.568 166.832,363.292 166.4,357.552" fill-opacity="0" stroke="#1A1919" stroke-width="5.6" stroke-linecap="round" stroke-linejoin="round"/>
    <g>
      <path d="M151.596,400.636 C135.832,392.6 131.104,380.388 131.104,380.388 M172.092,380.388 C172.092,380.388 167.36,392.6 151.596,400.636 L128.676,427.212 M151.596,400.636 L174.512,427.212 M266.884,460.272 L241.436,622.676 C241.436,622.676 247.88,679.868 252.548,709.2 M36.556,460.272 L62.004,622.676 C62.004,622.676 55.56,679.868 50.892,709.2" fill-opacity="0" stroke="#1A1919" stroke-width="4.8" stroke-linecap="round" stroke-linejoin="round"/>
      <path d="M320.032,503.944 C320.032,503.944 298.86,456.06 291.176,444.348 C280.512,428.092 268.588,422.24 268.588,422.24 C244.988,407.792 192.592,387.18 192.592,387.18 C192.592,387.18 181.748,373.928 170.368,369.104 M338.96,446.392 C334.608,444.74 330.8,447.748 330.8,447.748 C330.8,447.748 318.564,516.516 314.596,535.992 M368.4,462.432 C368.4,462.432 374.964,471.576 373.88,475.892 C373.292,478.212 363.516,549.76 358.292,564.42 C352.34,581.064 346.984,587.728 330.148,584.348 C308.508,579.992 259.18,513.78 259.18,513.78" fill-opacity="0" stroke="#1A1919" stroke-width="5.6" stroke-linecap="round" stroke-linejoin="round"/>
    </g>
    <path d="M35.988,218.804 C30.236,252.772 49.66,291.012 65.348,312.504 C88.856,344.688 132.824,362.816 151.788,362.816 C170.748,362.816 214.72,344.688 238.22,312.504 C253.2,291.988 263.604,256.288 266.908,225.084 C235.96,183.08 202.728,107.152 205.32,82.316 C205.32,82.316 190.908,100.244 108.908,128.58 C66.748,143.152 45,165.572 35.988,218.804" fill="#F8D2B5"/>
    <path d="M129.048,211.652 C129.048,227.428 117.26,240.224 102.716,240.224 C88.164,240.224 76.38,227.428 76.38,211.652 C76.38,195.868 88.164,183.08 102.716,183.08 C117.26,183.08 129.048,195.868 129.048,211.652" fill="#FFFFFE"/>
    <path d="M76.144,206.976 C76.144,206.976 78.912,188.88 97.748,183.86 C119.796,177.98 125.448,197.928 125.448,197.928 C125.448,197.928 113.968,190.28 100.296,193.408 C87.4,196.356 76.144,206.976 76.144,206.976" fill="#D8E9F1"/>
    <path d="M174.528,211.652 C174.528,227.428 186.32,240.224 200.86,240.224 C215.412,240.224 227.192,227.428 227.192,211.652 C227.192,195.868 215.412,183.08 200.86,183.08 C186.32,183.08 174.528,195.868 174.528,211.652" fill="#FFFFFE"/>
    <path d="M227.436,206.976 C227.436,206.976 224.664,188.88 205.828,183.86 C183.78,177.98 178.132,197.928 178.132,197.928 C178.132,197.928 189.608,190.28 203.284,193.408 C216.176,196.356 227.436,206.976 227.436,206.976" fill="#D8E9F1"/>
    <path d="M51.932,251.004 C51.932,256.964 61.452,261.792 73.192,261.792 C84.936,261.792 94.464,256.964 94.464,251.004 C94.464,245.048 84.936,240.224 73.192,240.224 C61.452,240.224 51.932,245.048 51.932,251.004" fill="#EB9294"/>
    <path d="M208.804,251.004 C208.804,256.964 218.324,261.792 230.064,261.792 C241.804,261.792 251.332,256.964 251.332,251.004 C251.332,245.048 241.804,240.224 230.064,240.224 C218.324,240.224 208.804,245.048 208.804,251.004" fill="#EB9294"/>
    <path d="M126.46,199.556 C126.46,199.556 119.532,176.244 97.904,181.72 C74.26,187.724 76.204,219.996 76.204,219.996" fill-opacity="0" stroke="#1A1919" stroke-width="5.6" stroke-linecap="round" stroke-linejoin="round"/>
    <path d="M75.328,211.428 L67.62,209.612" fill-opacity="0" stroke="#1A1919" stroke-width="4.8" stroke-linecap="round" stroke-linejoin="round"/>
    <path d="M177.12,199.556 C177.12,199.556 184.044,176.244 205.672,181.72 C229.32,187.724 227.372,219.996 227.372,219.996" fill-opacity="0" stroke="#1A1919" stroke-width="5.6" stroke-linecap="round" stroke-linejoin="round"/>
    <path d="M228.248,211.428 L235.96,209.612" fill-opacity="0" stroke="#1A1919" stroke-width="4.8" stroke-linecap="round" stroke-linejoin="round"/>
    <path d="M122.208,213.7 C122.208,225.976 116.252,235.936 108.912,235.936 C101.568,235.936 95.608,225.976 95.608,213.7 C95.608,201.4 101.568,191.444 108.912,191.444 C116.252,191.444 122.208,201.4 122.208,213.7" fill="#1A1919"/>
    <path d="M121.688,205.404 C121.688,208.036 119.576,210.168 116.968,210.168 C114.356,210.168 112.248,208.036 112.248,205.404 C112.248,202.76 114.356,200.624 116.968,200.624 C119.576,200.624 121.688,202.76 121.688,205.404" fill="#FFFFFE"/>
    <path d="M181.372,213.7 C181.372,225.976 187.324,235.936 194.664,235.936 C202.012,235.936 207.972,225.976 207.972,213.7 C207.972,201.4 202.012,191.444 194.664,191.444 C187.324,191.444 181.372,201.4 181.372,213.7" fill="#1A1919"/>
    <path d="M207.452,205.404 C207.452,208.036 205.336,210.168 202.724,210.168 C200.124,210.168 198.008,208.036 198.008,205.404 C198.008,202.76 200.124,200.624 202.724,200.624 C205.336,200.624 207.452,202.76 207.452,205.404" fill="#FFFFFE"/>
    <path d="M35.988,218.804 C30.236,252.772 49.66,291.012 65.348,312.504 C88.856,344.688 132.824,362.816 151.788,362.816 C170.748,362.816 214.72,344.688 238.22,312.504 C253.2,291.988 263.604,256.288 266.908,225.084 C235.96,183.08 202.728,107.152 205.32,82.316 C205.32,82.316 190.908,100.244 108.908,128.58 C66.748,143.152 45,165.572 35.988,218.804 z" fill-opacity="0" stroke="#1A1919" stroke-width="5.6" stroke-linecap="round" stroke-linejoin="round"/>
    <path d="M180.66,160.648 C188.304,150.236 222.304,145.984 231.952,165.572 M122.148,160.648 C114.504,150.236 80.504,145.984 70.856,165.572" fill-opacity="0" stroke="#1A1919" stroke-width="4.8" stroke-linecap="round" stroke-linejoin="round"/>
    <path d="M151.72,266.084 L151.72,260.14" fill-opacity="0" stroke="#1A1919" stroke-width="5.6" stroke-linecap="round" stroke-linejoin="round"/>
    <path d="M118.584,283.404 C125.528,288.348 140.936,291.976 152.004,291.976 L151.788,291.976 C162.852,291.976 178.26,288.348 185.204,283.404 C185.204,283.404 174.52,339.092 151.568,339.092 C128.616,339.092 118.584,283.404 118.584,283.404" fill="#DE737E"/>
    <path d="M126.996,311.48 C133.82,305.764 142.064,302.404 150.968,302.404 C160.496,302.404 169.264,306.288 176.34,312.772 C181.796,297.616 185.204,283.404 185.204,283.404 C185.568,283.34 162.952,288.012 151.888,288.036 C140.84,288.012 118.584,283.404 118.584,283.404 C118.584,283.404 121.808,296.816 126.996,311.48" fill="#C35953"/>
    <path d="M152.22,339.388 C131.136,339.388 118.584,283.404 118.584,283.404 C118.584,283.404 129.832,288.036 152.004,288.036 C174.176,288.036 185.204,283.404 185.204,283.404 C185.204,283.404 173.304,339.388 152.22,339.388 z" fill-opacity="0" stroke="#1A1919" stroke-width="4.8" stroke-linecap="round" stroke-linejoin="round"/>
    <g>
      <path d="M373.26,358.168 C373.26,358.168 381.464,316.888 386.08,303.372 C390.696,289.84 384.228,283.052 377.884,288.252 C373.292,292.02 370.128,298.42 365.844,317.708 C361.948,335.264 357.684,355.004 357.684,355.004 L373.26,358.168" fill="#F9D8BB"/>
      <path d="M338.556,461.568 C341.908,450.34 344.824,441.344 344.824,441.344 C344.824,441.344 323.312,416.572 324.848,400.34 C325.628,392.176 323.988,382.676 322.14,374.692 C320.3,366.7 325.416,363.936 332.764,373.764 C333.396,374.608 333.964,375.572 334.464,376.624 L336.22,380.58 C331.176,362.492 341.292,355.536 359.384,355.028 C374.776,354.6 385.492,365.452 385.492,365.452 L388.192,367.072 C393.964,371.496 395.036,378.912 395.036,378.912 L395.488,379.296 C409.68,390.968 377.292,435.124 371.76,444.7 C367.92,454.788 362.664,483.068 362.892,479.348 C362.892,479.348 355.864,478.752 338.556,461.568" fill="#F9D8BB"/>
      <path d="M362.892,478.428 C362.892,472.1 368.004,453.828 371.76,444.7 M343.816,438.64 C343.072,444.7 341.112,454.692 338.588,459.912 M371.76,444.7 C377.292,435.124 410.456,387.948 395.488,379.296 C383.9,372.6 357.304,376.428 353.04,380.212 C347.296,385.316 352.268,401.948 360.744,403.82 C369.22,405.684 380.652,405.716 377.256,399.248 C374.332,393.684 362.892,390.844 362.892,390.844 L378.564,390.52 M395.036,378.912 C395.036,378.912 393.368,367.064 382.696,364.408 C373.572,362.14 353.264,364.504 346.964,368.528 C341.62,371.936 334.928,395.96 354.308,400.168 M338.932,400.168 C338.932,400.168 338.444,381.356 332.764,373.764 C325.416,363.936 320.3,366.7 322.14,374.692 C323.988,382.676 325.432,392.16 324.848,400.34 C324.268,408.504 329.58,426.82 346.096,439.844" fill-opacity="0" stroke="#1A1919" stroke-width="5.6" stroke-linecap="round" stroke-linejoin="round"/>
      <path d="M338.932,393.92 C338.932,393.92 349.228,397.708 350.568,417.444" fill-opacity="0" stroke="#1A1919" stroke-width="4.8" stroke-linecap="round" stroke-linejoin="round"/>
      <path d="M385.492,365.452 C385.492,365.452 376.508,355.588 361.128,356.168 C341.704,356.904 331.176,362.492 336.22,380.58 M373.428,357.316 C373.428,357.316 381.464,316.888 386.08,303.372 C390.696,289.84 385.652,283.34 379.3,288.548 C374.704,292.32 371.456,299.96 366.512,318.056 C361.776,335.404 357.684,355.004 357.684,355.004" fill-opacity="0" stroke="#1A1919" stroke-width="5.6" stroke-linecap="round" stroke-linejoin="round"/>
    </g>
    <path d="M374.332,404.476 C374.332,404.476 357.684,411.364 357.684,432.524" fill-opacity="0" stroke="#1A1919" stroke-width="4.8" stroke-linecap="round" stroke-linejoin="round"/>
    <path d="M373.188,480.204 C346.612,481.012 329.34,455.904 330.68,448.396" fill-opacity="0" stroke="#1A1919" stroke-width="5.6" stroke-linecap="round" stroke-linejoin="round"/>
  </g>
</svg>
