<?xml version="1.0" encoding="UTF-8" standalone="no"?>
<!-- Created with Inkscape (http://www.inkscape.org/) -->

<svg
   xmlns:dc="http://purl.org/dc/elements/1.1/"
   xmlns:cc="http://creativecommons.org/ns#"
   xmlns:rdf="http://www.w3.org/1999/02/22-rdf-syntax-ns#"
   xmlns:svg="http://www.w3.org/2000/svg"
   xmlns="http://www.w3.org/2000/svg"
   xmlns:sodipodi="http://sodipodi.sourceforge.net/DTD/sodipodi-0.dtd"
   xmlns:inkscape="http://www.inkscape.org/namespaces/inkscape"
   width="41.264557mm"
   height="76.687553mm"
   viewBox="0 0 41.264557 76.687553"
   version="1.1"
   id="svg62982"
   inkscape:version="0.92.2 2405546, 2018-03-11"
   sodipodi:docname="sadwoman.svg">
  <defs
     id="defs62976" />
  <sodipodi:namedview
     id="base"
     pagecolor="#ffffff"
     bordercolor="#666666"
     borderopacity="1.0"
     inkscape:pageopacity="0.0"
     inkscape:pageshadow="2"
     inkscape:zoom="3.959798"
     inkscape:cx="83.750193"
     inkscape:cy="210.28115"
     inkscape:document-units="mm"
     inkscape:current-layer="layer19"
     showgrid="false"
     inkscape:pagecheckerboard="true"
     inkscape:snap-global="false"
     fit-margin-top="0"
     fit-margin-left="0"
     fit-margin-right="0"
     fit-margin-bottom="0"
     inkscape:window-width="1904"
     inkscape:window-height="948"
     inkscape:window-x="0"
     inkscape:window-y="23"
     inkscape:window-maximized="0" />
  <metadata
     id="metadata62979">
    <rdf:RDF>
      <cc:Work
         rdf:about="">
        <dc:format>image/svg+xml</dc:format>
        <dc:type
           rdf:resource="http://purl.org/dc/dcmitype/StillImage" />
        <dc:title></dc:title>
      </cc:Work>
    </rdf:RDF>
  </metadata>
  <g
     inkscape:groupmode="layer"
     id="layer19"
     inkscape:label="Layer 2"
     transform="translate(-19.505317,-110.48969)">
    <path
       style="fill:#000000;stroke-width:0.99999994"
       d="m 150.5,417.60742 c -0.61214,-0.0124 -1.22369,-0.0122 -1.83594,0.006 -3.6,0 -7.20146,0.35919 -10.73047,1.36719 -4.248,1.224 -8.13453,3.17051 -11.51953,5.97851 -3.96,3.24 -7.56103,6.91154 -10.08203,11.51954 -1.944,3.6 -4.10403,7.13073 -5.83203,10.80273 -1.656,3.528 -3.09558,7.12878 -4.39258,10.80078 -1.512,4.176 -2.88031,8.49614 -4.32031,12.74414 -1.224,3.60102 -2.592407,7.12825 -3.816407,10.65625 -0.792,2.376 -1.727531,4.6826 -2.519531,7.0586 -1.369002,3.96 -3.023875,7.77712 -3.671875,11.95312 -0.576,3.888 -0.792344,7.7038 -1.152344,11.5918 -0.144,1.8 0.215547,3.52852 0.935547,5.18554 1.512,3.6 3.456717,6.98408 5.761719,10.08008 1.44,1.94499 2.950171,3.96155 5.326171,5.18555 -0.288,0.432 -0.50275,0.71981 -0.71875,1.00781 -1.296,1.728 -2.592406,3.38426 -3.816406,5.11328 -1.44,2.016 -1.367203,3.45444 0.216797,5.39844 0.072,0.0722 0.07227,0.14499 0.07227,0.2168 -2.592,0.72 -5.185344,1.43989 -7.777344,2.08789 -1.656,0.432 -3.025203,1.22353 -4.033203,2.51953 -0.864,1.15298 -1.726533,2.3053 -2.519531,3.5293 -0.936,1.296 -1.800063,2.6652 -2.664063,4.0332 -1.008,1.512 -1.944859,3.09467 -2.880859,4.67969 -0.792,1.44 -1.872422,2.88084 -2.232422,4.46484 -0.864,3.384 -1.439359,6.84088 -1.943359,10.29688 -0.288019,2.16 -0.289143,4.31948 -0.578125,6.48046 -0.216,1.368 0.218296,2.51935 1.154297,3.52735 1.079999,1.08 1.871093,2.16067 1.871093,3.88867 0,1.944 0.360438,3.96225 0.648438,5.90625 0.144,0.936 0.432172,1.94291 0.576172,2.87891 0.504,3.096 1.079984,6.12079 1.583984,9.21679 0.72,4.32 1.439891,8.56867 2.087891,12.88868 0.432,3.02399 0.792875,6.12248 1.296875,9.14648 0.576,3.024 1.222361,6.048 1.943359,9 1.08,4.752 2.233297,9.50555 3.529297,14.18555 0.864,3.168 2.807156,5.90489 4.535156,8.71289 0.432,0.72 0.792875,1.43989 1.296875,2.08789 1.369002,1.656 2.735781,3.23923 4.175781,4.82422 0.936,1.008 1.080969,2.23303 0.792969,3.45703 -0.576,2.592 -1.8005,4.82309 -3.3125,6.91211 -1.225001,1.656 -2.591875,3.31301 -3.671875,5.04101 -0.936,1.44 -1.512766,2.95135 -3.384765,3.52735 -0.864,0.216 -1.800251,0.86344 -1.65625,2.23242 0.215999,1.872 0.431374,3.81576 0.359374,5.75976 -0.072,2.376 -0.503093,4.68127 -1.871093,6.69727 -0.648,0.936 -0.503735,1.58495 0.07227,2.37695 0.288,0.36 0.575016,0.72027 0.791016,1.08008 0.504,0.72 0.936516,1.51233 1.728516,1.72852 h 0.863281 c 0.072,0 0.144797,-0.0723 0.216797,-0.0723 v 0.0723 h 0.267578 0.957031 136.667968 1.58399 c -0.072,-0.144 -0.21538,-0.21726 -0.35938,-0.28907 -0.216,-0.072 -0.4319,-0.35998 -0.50391,-0.57617 -0.64799,-1.728 -1.44104,-3.45586 -1.87304,-5.25586 -0.792,-3.16898 -1.72777,-6.26426 -3.38477,-9.07226 -0.288,-0.504 -0.50443,-1.00772 -0.64843,-1.51172 -0.43201,-1.94498 -0.93493,-3.89025 -1.29493,-5.90625 -0.576,-3.744 -1.00762,-7.48816 -2.01562,-11.16016 -0.864,-3.168 -1.29731,-6.40844 -1.94531,-9.64844 0,-0.288 -0.0717,-0.6495 0.0723,-0.9375 0.576,-1.584 1.29731,-3.24021 1.94531,-4.82421 0.36,-1.008 0.71982,-2.01544 1.00782,-3.02344 0.216,-0.792 0.21564,-1.65749 0.43164,-2.52149 0.504,-2.448 1.22451,-4.89476 1.72851,-7.34375 0.432,-2.232 0.86266,-4.46526 1.22266,-6.69726 0.432,-2.808 0.79356,-5.6881 1.22656,-8.4961 0.432,-2.88 1.00745,-5.83289 1.43945,-8.71289 0.36,-2.232 0.64755,-4.46526 0.93555,-6.69726 0.36,-3.24102 0.79208,-6.40844 1.08008,-9.64844 0.288,-3.38498 0.4327,-6.76834 0.7207,-10.15234 0.288,-3.60102 0.57528,-7.12852 0.86328,-10.72852 0.072,-0.72 0.14454,-1.44016 0.14454,-2.16016 0,-0.79298 -0.14454,-1.58495 -0.14454,-2.37695 -0.072,-2.088 -0.14453,-4.24794 -0.14453,-6.33594 0,-1.728 0.36106,-3.38528 0.28907,-5.11328 -0.072,-1.224 -0.36061,-2.59161 -1.22461,-3.59961 -0.288,-0.432 -0.72008,-0.79253 -1.08008,-1.15234 -2.304,-2.232 -4.5378,-4.53753 -6.8418,-6.76953 -1.656,-1.656 -3.31159,-3.38395 -5.18359,-4.75195 -2.809,-2.088 -5.90507,-3.74422 -9.28907,-4.82422 -3.45699,-1.08 -6.91198,-2.08797 -10.58398,-2.16016 -4.249,-0.144 -7.20177,-2.66439 -10.00977,-5.40039 0.576,-0.432 1.00915,-0.35947 1.36914,0.14453 1.00801,1.44 2.52005,2.15927 4.24805,2.44727 0.144,0 0.28764,0.0727 0.43164,0.14453 2.233,0.86381 4.465,0.4312 6.625,-0.2168 2.232,-0.576 3.88677,-2.16076 5.75977,-3.38476 0.91396,-0.58847 1.65917,-1.46575 2.48633,-2.26954 -0.81408,0.52078 -1.67527,0.94436 -2.41407,1.54883 -3.31299,2.73702 -8.20931,1.87348 -10.94531,-0.93554 -0.576,-0.576 -0.4312,-1.07999 0.2168,-1.58399 0.792,-0.576 1.65695,-1.22505 2.37695,-1.87305 1.008,-0.864 2.01517,-1.79837 2.95117,-2.73437 1.584,-1.512 3.52865,-2.59213 4.68164,-4.53711 0.864,-1.44 2.30255,-2.59294 3.31055,-3.96094 1.224,-1.512 2.3045,-3.16822 3.3125,-4.82422 0.432,-0.86502 0.43128,-1.94459 0.86328,-2.80859 1.224,-2.592 1.65625,-5.3993 1.65625,-8.2793 0,-1.80098 -0.2879,-3.67265 -0.5039,-5.47265 -0.432,-4.464 -2.66325,-8.3533 -4.03125,-12.5293 -0.72,-2.016 -1.72807,-3.88998 -2.66407,-5.83398 -0.72,-1.512 -1.58468,-2.9509 -2.30468,-4.46289 -1.369,-2.73601 -2.73694,-5.40268 -3.96094,-8.13868 -0.936,-2.232 -1.6558,-4.60686 -2.5918,-6.83984 -1.008,-2.52 -2.1597,-4.96855 -3.0957,-7.56055 -1.08,-2.952 -1.94486,-5.90542 -2.88086,-8.85742 -0.792,-2.376 -1.65527,-4.75192 -2.44727,-7.12891 -1.08,-3.24 -2.30547,-6.33581 -4.10547,-9.21679 -2.304,-3.672 -5.61706,-6.33636 -9.28906,-8.56836 -2.16,-1.296 -4.39237,-2.1597 -6.98437,-2.08789 -2.016,0 -3.81639,0.0718 -5.40039,1.29687 -0.216,-0.144 -0.28764,-0.28756 -0.43164,-0.35937 -1.656,-1.36902 -3.38546,-2.66655 -5.68946,-2.81055 -1.836,-0.108 -3.67139,-0.25587 -5.50781,-0.29297 z"
       transform="scale(0.26458333)"
       id="path63927"
       inkscape:connector-curvature="0" />
    <path
       style="fill:#000000;stroke-width:0.99999994"
       d="m 206.37891,536.45898 c 0.0586,-0.0375 0.11969,-0.0687 0.17773,-0.10742 0.072,0.0722 0.1448,0.0727 0.2168,0.14453 l -0.14453,-0.28711 c -0.0873,0.0806 -0.16489,0.1673 -0.25,0.25 z"
       transform="scale(0.26458333)"
       id="path63925"
       inkscape:connector-curvature="0" />
  </g>
  <g
     inkscape:label="Layer 1"
     inkscape:groupmode="layer"
     id="layer1"
     style="display:inline"
     transform="translate(-19.505317,-110.48969)">
    <g
       id="ƒŒƒCƒ_x201e__x0081__x005b__x0020_1"
       transform="matrix(0.26458333,0,0,0.26458333,18.236233,109.29153)">
      <g
         id="g63787">
        <path
           id="path63693"
           d="m 31.711,257.575 c 0.648,0.576 1.224,1.08 1.728,1.656 0.792,0.864 1.8,1.152 2.88,1.008 2.089,-0.288 4.249,-0.36 6.337,-0.864 2.088,-0.504 4.104,-1.368 6.193,-2.16 1.152,-0.432 2.304,-1.08 3.528,-1.44 2.232,-0.576 3.744,-2.161 5.04,-3.745 1.873,-2.304 3.673,-4.824 5.113,-7.416 1.44,-2.521 2.52,-5.329 3.672,-8.065 1.8,-4.249 3.385,-8.641 5.185,-12.889 1.944,-4.681 3.816,-9.361 5.904,-14.042 0.792,-1.8 2.088,-3.456 3.241,-5.112 0.288,-0.504 0.792,-0.792 -0.216,-1.152 -0.505,-0.144 -0.865,-0.648 -1.225,-1.008 -1.8,-1.584 -3.6,-3.097 -5.4,-4.681 -0.792,-0.648 -1.08,-1.44 -0.864,-2.52 0.288,-1.224 0.216,-2.52 0.504,-3.744 0.864,-3.817 1.872,-7.633 2.808,-11.449 0.648,-2.593 1.08,-5.257 1.8,-7.921 0.72,-2.952 1.656,-5.833 2.449,-8.713 0.36,-1.152 0.792,-2.376 1.08,-3.528 0.144,-0.504 0.36,-0.504 0.792,-0.504 1.8,0.144 3.528,0.216 5.328,0.288 1.152,0 1.296,0 1.368,1.152 0.144,2.88 0.216,5.76 0.432,8.641 0.144,2.808 0.504,5.616 0.648,8.424 0.072,1.296 0,2.521 0.072,3.817 0.144,1.872 0.288,3.816 0.504,5.688 0.288,2.881 0.649,5.833 1.009,8.713 0,0.144 -0.072,0.36 -0.216,0.504 -1.513,1.368 -3.025,2.736 -4.537,4.032 -0.792,0.649 -1.584,1.297 -2.376,1.873 -0.792,0.648 -0.792,0.864 -0.144,1.656 0.504,0.576 0.864,1.224 1.224,1.944 0.936,1.656 2.016,3.312 2.808,5.04 2.881,6.193 5.257,12.602 7.561,19.01 1.008,2.736 1.872,5.545 2.808,8.353 0.864,2.448 2.232,4.608 3.817,6.697 2.088,2.736 4.104,5.616 6.336,8.208 1.368,1.657 3.168,2.953 4.753,4.393 1.152,1.08 2.232,2.232 3.456,3.096 1.656,1.224 3.456,2.232 5.184,3.312 0.792,0.504 1.657,0.864 2.377,1.369 1.872,1.368 3.888,1.44 5.976,0.576 3.096,-1.225 5.689,-3.241 8.065,-5.545 0.792,-0.72 1.584,-1.44 2.448,-2.088 2.088,-1.512 3.456,-3.528 4.825,-5.689 0.216,-0.36 0.432,-0.648 0.792,-1.152 0.36,1.296 0.72,2.448 1.008,3.601 0.864,3.888 1.728,7.704 2.448,11.593 0.432,2.304 0.648,4.68 1.08,7.056 0.432,2.305 0.936,4.537 2.16,6.553 1.728,2.808 2.305,6.12 3.169,9.217 0.432,1.368 0.936,2.736 1.512,4.104 0.072,0.216 0.216,0.36 0.36,0.504 H 21.99 c -0.36,-0.36 -1.008,-0.504 -1.512,-0.792 -0.432,-0.288 -0.936,-0.504 -1.296,-0.864 -0.36,-0.288 -0.504,-0.864 -0.792,-1.152 -0.864,-0.864 -0.504,-1.656 -0.072,-2.52 1.656,-3.313 2.088,-6.769 1.8,-10.369 -0.072,-0.792 -0.288,-1.584 -0.144,-2.376 0.072,-0.433 0.576,-1.009 0.936,-1.153 1.656,-0.432 2.448,-1.656 3.24,-2.952 1.296,-2.016 2.665,-3.96 3.961,-5.976 2.304,-3.601 3.096,-4.753 3.744,-8.497 z"
           inkscape:connector-curvature="0"
           style="fill:#facbce" />
        <path
           id="path63695"
           d="m 128.704,116.73 c -3.384,3.672 -7.345,6.48 -12.169,8.64 0.504,-0.864 0.864,-1.512 1.224,-2.088 2.376,-3.888 3.672,-8.136 4.608,-12.601 0.937,-4.68 1.081,-9.361 1.657,-14.041 0.432,-3.457 -0.216,-6.841 -0.288,-10.225 0,-1.224 0,-2.448 -0.216,-3.6 -0.216,-1.081 -0.793,-2.017 -1.009,-3.097 -0.144,-0.576 -0.144,-1.224 -0.072,-1.8 0.721,-5.4 0.576,-10.729 -0.072,-16.129 -0.504,-4.321 -1.296,-8.569 -2.448,-12.746 -1.008,-3.744 -2.304,-7.344 -4.608,-10.585 -2.448,-3.384 -4.681,-6.984 -7.057,-10.369 -1.44,-2.016 -3.024,-3.816 -4.536,-5.76 -0.216,-0.288 -0.216,-0.648 -0.432,-0.936 -0.216,-0.216 -0.504,-0.432 -0.792,-0.576 -0.144,-0.072 -0.504,0.216 -0.504,0.432 0,0.288 0.144,0.576 0.288,0.792 2.304,2.952 4.608,5.832 6.912,8.857 1.224,1.584 2.376,3.312 3.601,4.968 3.816,5.401 6.192,11.377 7.488,17.858 1.08,5.544 2.016,11.089 1.944,16.705 0,2.593 -0.288,5.185 -0.432,7.777 -0.072,1.008 -0.792,1.368 -1.656,0.792 -0.576,-0.36 -1.008,-0.504 -1.656,-0.216 -0.36,0.144 -0.936,-0.144 -1.368,-0.36 -1.728,-0.936 -3.456,-1.872 -5.113,-2.952 -1.224,-0.792 -2.376,-1.728 -3.384,-2.736 -2.016,-2.017 -3.744,-4.249 -5.04,-6.841 -0.648,-1.296 -1.656,-2.448 -2.377,-3.816 -0.936,-1.801 -1.944,-3.529 -2.376,-5.473 -0.504,-2.016 -1.512,-3.816 -1.656,-5.832 -0.072,-0.937 -0.144,-1.801 -0.216,-2.737 -0.144,-1.944 0.144,-3.888 0.648,-5.76 0.072,-0.216 0.144,-0.504 0.288,-1.008 0.792,1.584 1.368,3.024 2.088,4.392 2.305,4.176 4.537,8.353 6.985,12.385 1.728,2.88 3.6,5.689 5.617,8.353 1.584,2.088 3.6,3.96 5.472,5.833 0.576,0.576 1.512,0.792 2.232,1.152 0,-0.072 0.072,-0.144 0.072,-0.216 -1.368,-1.224 -2.88,-2.305 -4.176,-3.601 -3.096,-3.096 -5.401,-6.84 -7.633,-10.513 -2.16,-3.456 -4.32,-6.984 -6.264,-10.585 -1.513,-2.808 -2.809,-5.76 -4.105,-8.712 -0.216,-0.433 0,-1.081 0.072,-1.585 0.144,-1.512 0.288,-3.024 0.36,-4.464 0.072,-0.072 0.144,-0.144 0.216,-0.144 1.944,1.872 3.961,3.672 5.833,5.688 2.736,2.953 4.68,6.481 6.696,9.937 2.089,3.601 3.889,7.273 5.257,11.161 1.296,3.529 2.592,7.129 2.736,11.017 0,0.288 0.144,0.577 0.288,0.865 0.072,0 0.144,0 0.288,-0.072 0,-1.081 0.144,-2.161 0,-3.241 -0.504,-3.96 -2.016,-7.704 -3.456,-11.377 -2.16,-5.4 -5.041,-10.369 -8.209,-15.193 -2.232,-3.457 -5.112,-6.265 -8.353,-8.785 -0.792,-0.576 -1.584,-1.152 -1.656,-2.304 -0.072,-0.792 -0.36,-0.864 -0.864,-0.648 0.072,-1.368 0.216,-2.737 0.288,-4.105 0,-0.288 -0.288,-0.576 -0.432,-0.864 -0.216,0.288 -0.648,0.576 -0.648,0.864 -0.072,0.936 0,1.8 0,2.737 -1.008,0.36 -1.224,0.72 -0.648,1.368 0.576,0.648 0.72,1.368 0.648,2.16 -0.072,1.152 -0.288,2.232 -0.36,3.384 -0.072,1.224 0,2.448 -0.216,3.673 -0.648,4.752 -1.8,9.36 -3.96,13.609 -0.792,1.584 -2.089,3.024 -3.385,4.32 -2.88,3.024 -5.76,5.977 -8.857,8.785 -3.312,3.024 -6.984,5.329 -11.305,6.697 -0.36,0.144 -0.72,0.288 -1.08,0.72 0.216,0 0.36,0.072 0.576,0 3.313,-1.008 6.553,-2.233 9.289,-4.393 2.16,-1.656 4.105,-3.456 6.121,-5.328 2.088,-1.944 3.96,-4.033 5.976,-5.977 0.072,-0.072 0.144,-0.144 0.36,-0.144 -0.432,0.792 -0.864,1.656 -1.44,2.448 -1.296,2.017 -2.664,3.961 -4.104,5.905 -0.648,0.792 -1.512,1.44 -2.376,2.016 -2.089,1.44 -4.177,2.88 -6.337,4.177 -0.792,0.504 -1.656,0.72 -2.664,0.792 -1.008,0.072 -2.016,0.72 -3.024,1.224 -0.577,0.288 -1.009,0.864 -1.585,1.296 -0.432,-0.792 -1.008,-0.576 -1.584,-0.216 -0.864,0.504 -1.728,1.08 -2.592,1.584 -0.792,0.432 -1.512,1.08 -2.52,0.288 -0.144,-0.144 -0.648,0.072 -0.936,0.216 -0.576,0.216 -1.08,0.504 -1.656,0.648 -0.216,0.072 -0.577,-0.144 -0.865,-0.216 -0.288,-0.072 -0.576,-0.144 -0.792,-0.072 -1.08,0.216 -2.016,0.648 -3.24,0.072 -0.504,-0.216 -1.368,0.144 -2.016,0.288 -2.016,0.36 -4.032,0.792 -6.049,1.152 -0.144,0 -0.36,0 -0.72,0 0.288,-1.08 0.576,-2.088 0.792,-3.096 0.288,-1.008 0.504,-1.944 0.792,-2.952 0.072,-0.216 0.36,-0.576 0.576,-0.576 1.729,-0.216 3.097,-1.224 4.537,-2.089 5.184,-3.24 9.505,-7.56 13.825,-11.809 4.681,-4.536 9.145,-9.289 13.177,-14.473 2.881,-3.672 5.329,-7.633 6.985,-12.097 0.72,-1.944 1.152,-3.961 0.648,-6.337 -0.216,0.432 -0.504,0.72 -0.504,1.008 0.144,3.889 -1.656,7.201 -3.384,10.441 -2.737,5.041 -6.337,9.361 -10.297,13.466 -4.033,4.248 -8.209,8.424 -12.457,12.457 -3.169,3.024 -6.625,5.76 -10.441,7.992 -0.648,0.361 -1.368,0.577 -2.233,0.937 0.216,-1.297 0.649,-2.089 1.513,-2.881 3.456,-3.024 6.768,-6.12 10.153,-9.289 5.256,-4.896 9.72,-10.513 14.113,-16.129 1.8,-2.304 3.456,-4.752 5.04,-7.273 0.576,-0.936 0.72,-2.232 1.008,-3.312 0.072,-0.216 -0.144,-0.432 -0.216,-0.648 -0.144,0.144 -0.432,0.288 -0.504,0.432 -0.792,4.464 -4.032,7.561 -6.552,11.017 -2.809,3.744 -5.833,7.273 -8.929,10.729 -2.232,2.52 -4.753,4.896 -7.201,7.201 -2.16,2.088 -4.392,4.032 -6.624,6.048 -0.144,0.072 -0.216,0.144 -0.504,0.216 2.088,-6.048 4.608,-11.881 6.696,-17.929 -0.144,-0.072 -0.288,-0.144 -0.432,-0.216 -0.36,0.72 -0.864,1.512 -1.152,2.304 -2.16,5.472 -4.248,11.017 -6.409,16.489 -0.144,0.432 -0.504,0.72 -0.864,1.08 -0.216,0.216 -0.504,0.36 -0.72,0.504 0.216,0.216 0.504,0.432 0.864,0.792 -0.144,0.289 -0.36,0.793 -0.648,1.297 0,0.072 0.144,0.36 0.072,0.576 -0.504,1.944 -1.008,3.96 -1.512,5.904 -0.072,0.288 -0.432,0.576 -0.72,0.648 -0.936,0.288 -1.872,0.504 -3.024,0.792 1.296,0.504 2.304,0 3.384,-0.144 0.432,1.296 0,2.449 -1.296,2.809 -1.368,0.432 -1.728,1.512 -1.872,2.664 -0.072,0.504 -0.144,1.008 -0.432,1.512 -0.144,-1.44 -0.36,-2.808 -0.504,-4.248 -0.432,-4.969 -0.072,-9.937 1.224,-14.762 1.296,-4.968 2.736,-9.865 4.176,-14.833 0.216,-0.72 0.648,-1.368 0.864,-2.088 0.072,-0.216 -0.072,-0.504 -0.144,-0.72 -0.216,0.144 -0.576,0.144 -0.648,0.36 -0.36,0.792 -0.72,1.584 -0.936,2.376 -1.512,5.4 -3.168,10.873 -4.464,16.345 -1.008,4.321 -1.296,8.713 -0.864,13.178 0.216,2.592 0.288,5.256 1.152,7.632 0.792,2.016 0.144,3.889 0.36,5.761 0.072,0.792 0.144,1.584 0.216,2.376 0.072,1.728 0,3.456 0.216,5.185 0.216,2.088 0.504,4.176 0.792,6.264 0.216,1.44 0.432,2.88 0.72,4.321 0.504,3.024 2.376,5.472 4.176,7.776 2.377,3.097 5.617,5.113 8.641,7.345 0.504,0.36 1.08,0.792 1.512,1.296 1.296,1.296 2.593,2.664 3.961,4.032 -3.313,2.017 -7.057,3.025 -10.873,2.233 -4.753,-1.008 -8.569,-3.601 -10.729,-8.209 4.248,3.168 5.976,3.816 7.128,2.592 -0.072,-0.072 -0.216,-0.216 -0.288,-0.216 -2.808,-0.216 -4.752,-1.8 -6.48,-3.744 -2.088,-2.376 -3.889,-4.969 -4.753,-8.137 -0.144,-0.576 -0.288,-0.936 0.288,-1.296 0.144,-0.072 0.144,-0.432 0.288,-0.792 -0.432,0.072 -0.648,0.144 -0.864,0.144 -1.08,-2.088 -0.648,-4.321 -0.648,-6.625 1.368,0.72 2.16,2.304 3.961,1.656 0.072,1.08 0.072,2.089 0.216,3.169 0.36,3.24 1.512,6.12 3.528,8.64 0.936,1.081 2.16,1.945 3.24,2.881 1.944,1.656 4.105,2.808 6.481,3.672 1.512,0.576 2.52,0.36 3.96,-0.72 -0.288,-0.072 -0.648,-0.144 -0.936,-0.072 -1.368,0.432 -2.592,0.144 -3.816,-0.576 -1.368,-0.792 -2.809,-1.44 -4.177,-2.304 -2.88,-1.944 -5.328,-4.465 -6.552,-7.777 -0.792,-2.088 -1.152,-4.248 -1.008,-6.553 0.072,-0.864 0,-1.8 -0.216,-2.736 -0.216,0.576 -0.432,1.152 -0.576,1.728 -1.873,0.504 -2.665,-1.08 -3.745,-2.016 -0.216,-0.144 -0.216,-0.648 -0.144,-1.008 0.576,-3.312 1.152,-6.697 1.8,-10.009 0,-0.144 0.072,-0.216 0.216,-0.432 0.288,0.432 0.576,0.792 0.864,1.152 0.073,0 0.145,-0.072 0.217,-0.072 -0.217,-0.576 -0.433,-1.08 -0.577,-1.656 -0.144,-0.432 -0.288,-0.936 -0.288,-1.368 -0.072,-0.648 -0.072,-1.224 -0.504,-1.8 -0.432,-0.648 -0.504,-1.584 -0.648,-2.377 -0.864,-5.688 -1.584,-11.377 -1.08,-17.065 0.216,-2.448 0.72,-4.969 1.368,-7.345 1.729,-6.264 4.249,-12.169 7.129,-18.001 1.512,-3.169 2.952,-6.337 4.392,-9.505 0.144,-0.36 0.288,-0.72 0.36,-1.08 0.072,-0.289 -0.072,-0.649 -0.072,-0.937 -0.288,0.216 -0.648,0.432 -0.792,0.793 -0.36,0.864 -0.576,1.728 -0.936,2.592 -1.728,3.816 -3.6,7.632 -5.256,11.521 -2.304,5.328 -4.537,10.657 -5.977,16.345 -1.08,4.393 -1.08,8.857 -0.936,13.322 0.144,4.608 0.936,9.072 2.088,13.537 0.216,0.72 -0.072,1.656 -0.288,2.448 -0.576,3.168 -1.224,6.337 -1.944,9.721 -0.576,-0.936 -1.224,-1.728 -1.656,-2.52 -1.224,-2.16 -1.872,-4.537 -2.448,-6.913 -0.72,-3.024 -1.008,-6.048 -1.08,-9.073 0,-2.592 0.144,-5.184 0.576,-7.776 0.648,-4.465 1.584,-8.929 2.448,-13.394 0.288,-1.584 0.864,-3.168 1.296,-4.752 0.144,-0.576 0.504,-1.08 -0.432,-1.224 1.008,-2.881 2.016,-5.617 2.952,-8.353 1.08,-3.168 2.088,-6.265 3.241,-9.433 1.008,-2.808 1.944,-5.616 3.168,-8.353 1.584,-3.6 3.384,-7.2 5.256,-10.657 1.225,-2.304 2.521,-4.536 4.177,-6.552 2.376,-2.809 4.896,-5.545 7.704,-7.921 2.809,-2.376 6.121,-4.104 9.721,-5.113 1.225,-0.36 2.449,-0.864 3.745,-1.08 2.808,-0.36 5.688,-0.648 8.497,-0.72 2.16,-0.072 4.32,0 6.48,0.288 2.52,0.288 4.609,1.584 6.193,3.673 0.144,0.144 0.36,0.288 0.576,0.36 0.072,0 0.36,-0.288 0.288,-0.36 C 93.925,8.288 94.645,8 95.221,7.856 c 0.72,-0.216 1.512,-0.36 2.304,-0.432 0.504,-0.072 1.008,0.144 1.512,0.072 2.016,-0.289 3.745,0.504 5.401,1.512 1.44,0.864 3.024,1.656 4.32,2.736 2.304,1.944 4.393,4.104 5.977,6.841 2.088,3.672 3.24,7.704 4.68,11.593 1.44,4.032 2.592,8.136 3.961,12.169 0.864,2.52 2.016,4.968 3.024,7.488 0.36,0.937 0.648,2.017 1.008,3.025 -0.792,0.288 -0.864,0.648 -0.216,1.296 1.944,1.944 2.376,4.464 2.736,7.057 0.432,3.528 0.936,7.128 1.296,10.657 0.36,4.032 0.432,8.064 -0.576,12.025 -0.648,2.664 -1.368,5.256 -2.736,7.704 -0.072,0.144 -0.144,0.36 -0.216,0.504 0.072,0.072 0.144,0.072 0.216,0.144 0.288,-0.36 0.576,-0.648 0.792,-1.008 1.296,-2.304 2.304,-4.752 2.664,-7.416 0.36,-2.377 0.792,-4.825 0.864,-7.273 0.072,-2.304 -0.216,-4.608 -0.432,-6.913 -0.216,-2.808 -0.576,-5.616 -0.72,-8.496 0.216,0.432 0.432,0.936 0.648,1.368 1.224,2.304 2.521,4.536 3.601,6.912 1.44,3.169 2.592,6.481 4.032,9.649 1.08,2.448 2.088,4.969 2.52,7.633 0.792,4.968 0.864,9.793 -0.936,14.761 -1.296,3.529 -3.384,6.265 -5.616,9.073 -1.585,2.016 -3.169,4.032 -5.329,5.473 -0.288,0.144 -0.504,0.288 -0.792,0.504 0.216,-0.216 0.432,-0.504 0.648,-0.72 1.368,-1.441 2.736,-2.881 3.456,-4.825 0.577,-1.512 1.009,-3.024 1.441,-4.608 0.144,-0.648 0.216,-1.296 0.288,-2.016 -0.072,0 -0.216,0 -0.288,-0.072 -0.432,1.296 -0.937,2.592 -1.225,3.96 -0.504,2.088 -1.44,3.888 -2.808,5.544 -0.648,0.72 -1.224,1.513 -1.872,2.233 -0.288,0.36 -0.36,0.648 0.288,0.648 z M 54.321,78.134 v 0 c 0.648,-0.072 1.152,0 1.656,-0.144 2.809,-0.648 5.185,-2.016 7.345,-3.816 3.312,-2.737 6.625,-5.473 9.649,-8.497 3.672,-3.672 7.273,-7.561 10.585,-11.593 3.528,-4.249 6.048,-9.145 7.705,-14.473 0.36,-1.153 0.432,-2.305 0.648,-3.529 -0.072,0 -0.216,-0.072 -0.288,-0.072 -0.36,1.008 -0.72,2.016 -1.009,3.024 -1.296,4.177 -3.168,8.137 -5.688,11.81 -2.952,4.248 -6.337,8.064 -9.937,11.665 -3.096,3.024 -6.193,5.976 -9.505,8.856 -2.016,1.729 -4.248,3.313 -6.552,4.681 -1.297,0.864 -2.881,1.296 -4.609,2.016 z m 72.223,28.227 v 0 c -1.008,0.36 -1.728,0.504 -2.448,0.864 -0.216,0.144 -0.36,0.576 -0.504,0.864 0.288,0.072 0.648,0.216 0.936,0.144 0.504,-0.144 1.008,-0.432 1.512,-0.792 0.72,-0.432 1.656,-0.792 1.944,-1.44 0.432,-0.792 1.08,-1.08 1.656,-1.512 0.432,-0.288 0.864,-0.649 1.224,-1.009 0.72,-0.648 1.296,-1.368 2.016,-2.016 2.593,-2.592 4.465,-5.616 5.401,-9.145 0.576,-2.16 0.864,-4.32 1.296,-6.48 0,-0.144 -0.072,-0.288 -0.144,-0.504 -0.792,0.72 -1.08,1.512 -1.224,2.376 -0.432,2.232 -0.792,4.536 -1.584,6.697 -1.584,4.248 -4.681,7.344 -8.209,10.009 -0.864,0.648 -1.872,1.08 -2.88,1.656 0.36,0.072 0.504,0.144 1.008,0.216 z m -2.016,-5.257 v 0 c 0.792,0.648 1.584,0.288 2.088,-0.288 1.512,-1.872 3.096,-3.744 4.32,-5.76 1.944,-3.169 3.025,-6.697 3.817,-10.297 0.504,-2.377 1.008,-4.681 0.648,-7.129 -0.144,-1.008 -0.576,-1.728 -1.44,-2.304 -0.072,0.36 0,0.72 0.072,1.08 0.216,1.152 0.576,2.376 0.504,3.528 -0.216,4.681 -1.441,9.217 -3.601,13.394 -1.008,2.016 -2.376,3.816 -3.6,5.688 -0.648,1.008 -1.44,1.944 -2.808,2.088 z M 84.564,15.056 v 0 c 0,-0.144 0.072,-0.288 0.072,-0.432 -0.936,-0.216 -1.944,-0.504 -2.88,-0.648 -2.305,-0.216 -4.465,0.504 -6.553,1.296 -3.672,1.44 -7.057,3.313 -10.081,5.833 -1.8,1.44 -3.672,2.808 -4.824,4.824 -0.432,0.792 -0.792,1.656 -0.288,2.881 0.504,-2.449 2.016,-4.033 3.6,-5.401 3.456,-2.952 7.201,-5.473 11.449,-7.201 2.808,-1.152 5.617,-1.8 8.641,-1.08 0.288,0.072 0.648,0 0.936,0 z M 56.553,49.979 v 0 c 0.072,0.072 0.216,0.072 0.288,0.144 0.144,-0.216 0.288,-0.36 0.36,-0.576 1.657,-2.52 3.241,-5.04 4.969,-7.416 1.224,-1.656 2.664,-3.169 4.032,-4.825 1.368,-1.656 2.736,-3.312 4.105,-4.968 0.288,-0.36 0.432,-0.792 0.648,-1.224 -0.072,-0.072 -0.216,-0.144 -0.288,-0.216 -0.648,0.648 -1.369,1.224 -2.017,1.944 -1.512,1.8 -2.88,3.744 -4.392,5.544 -2.808,3.313 -5.256,6.841 -7.417,10.585 -0.144,0.288 -0.288,0.72 -0.36,1.008 z M 82.98,17.288 v 0 c 0,-0.072 0,-0.216 0,-0.288 -1.368,0 -2.736,-0.216 -4.105,0.072 -2.376,0.504 -4.32,1.945 -6.264,3.313 -1.944,1.44 -4.033,2.808 -5.401,4.896 -0.216,0.288 -0.216,0.72 -0.36,1.08 0.072,0.072 0.216,0.072 0.288,0.144 0.216,-0.216 0.36,-0.432 0.576,-0.648 0.288,-0.36 0.504,-0.792 0.792,-1.08 1.297,-1.152 2.521,-2.304 3.889,-3.312 2.088,-1.584 4.248,-3.096 6.912,-3.745 1.153,-0.288 2.377,-0.288 3.601,-0.432 z m 17.425,-4.968 v 0 c -0.648,-0.216 -1.296,-0.576 -1.656,-0.432 -1.152,0.432 -2.232,1.152 -3.312,1.8 -0.216,0.144 -0.216,0.576 -0.36,0.864 0.288,-0.072 0.648,-0.072 0.864,-0.216 0.864,-0.504 1.584,-1.152 2.448,-1.584 0.288,-0.144 0.792,0 1.152,0 0.144,0 0.288,0.072 0.432,0.072 0.072,0 0.144,-0.144 0.36,-0.504 z M 87.228,9.512 v 0 c 1.872,0.504 3.889,0.648 4.897,2.664 0.072,0.072 0.504,-0.072 0.72,-0.072 0,-0.216 0,-0.504 -0.144,-0.648 -0.288,-0.36 -0.648,-0.72 -1.008,-1.008 C 90.324,9.44 88.884,8.936 87.156,9.44 Z m 13.321,5.688 v 0 c 0,-0.144 0.072,-0.288 0.072,-0.36 -0.288,-0.144 -0.72,-0.504 -0.936,-0.432 -1.296,0.36 -2.592,0.864 -3.816,1.368 -0.144,0.072 -0.144,0.504 -0.216,0.72 0.216,0 0.504,0.144 0.648,0.072 1.296,-0.864 2.592,-1.44 4.176,-1.296 z M 87.588,13.04 v 0 c 0.576,-0.072 0.936,-0.216 1.296,-0.144 1.08,0.072 2.161,0.072 2.809,1.224 0.144,0.216 0.648,0.144 0.936,0.216 -0.144,-0.288 -0.144,-0.648 -0.36,-0.864 -0.288,-0.288 -0.648,-0.576 -1.008,-0.792 -0.865,-0.648 -2.521,-0.504 -3.673,0.36 z"
           inkscape:connector-curvature="0"
           style="fill:#7a563b" />
        <path
           id="path63697"
           d="m 129.136,133.147 c 1.512,0.36 3.024,0.648 4.464,1.152 2.305,0.72 4.681,1.44 6.841,2.449 3.096,1.368 5.833,3.168 8.209,5.616 1.368,1.44 2.952,2.664 4.392,4.032 0.936,0.865 1.728,1.873 2.593,2.737 0.72,0.792 1.584,1.44 2.304,2.304 1.368,1.584 1.872,3.384 1.584,5.544 -0.288,2.089 -0.36,4.177 -0.288,6.265 0,2.016 0.432,4.032 0.36,6.049 -0.072,3.672 -0.288,7.272 -0.576,10.945 -0.216,2.952 -0.792,5.832 -1.08,8.784 -0.144,1.729 0,3.457 -0.144,5.113 -0.144,2.16 -0.432,4.32 -0.72,6.408 -0.36,2.449 -0.72,4.897 -1.08,7.345 -0.504,3.456 -1.081,6.913 -1.657,10.369 -0.36,2.304 -0.648,4.681 -1.08,6.985 -0.432,2.52 -1.008,5.112 -1.584,7.632 -0.648,3.169 -1.368,6.409 -2.088,9.577 -0.216,1.08 -0.504,2.089 -1.008,3.097 -1.224,2.52 -2.232,5.112 -3.961,7.416 -1.44,1.945 -2.88,3.889 -4.896,5.329 -1.224,0.864 -2.16,2.088 -3.312,2.952 -2.088,1.656 -4.249,3.312 -6.913,4.105 -1.584,0.432 -2.952,0.144 -4.32,-0.577 -2.305,-1.224 -4.681,-2.448 -6.769,-3.96 -1.944,-1.368 -3.672,-3.168 -5.544,-4.68 -2.737,-2.233 -4.825,-5.041 -6.841,-7.849 -1.368,-1.872 -2.88,-3.672 -4.104,-5.617 -1.009,-1.656 -1.729,-3.456 -2.449,-5.256 -1.08,-2.88 -2.016,-5.833 -3.096,-8.713 -1.872,-4.968 -3.672,-9.937 -5.689,-14.833 -0.936,-2.376 -2.304,-4.609 -3.528,-6.841 -0.576,-1.008 -1.152,-2.016 -1.8,-3.168 1.224,-0.36 2.232,-0.792 3.312,-1.008 3.457,-0.792 6.553,-2.449 9.865,-3.817 2.448,-1.008 4.969,-1.944 7.417,-2.952 3.096,-1.224 6.12,-2.448 8.713,-4.536 0.648,-0.504 1.44,-0.792 2.088,-1.296 1.008,-0.721 2.088,-1.369 2.52,-2.593 0.072,-0.216 0.36,-0.36 0.576,-0.504 1.296,1.008 1.944,2.304 2.592,3.745 0.72,1.656 1.513,3.312 2.161,4.968 0.576,1.584 1.08,3.168 1.656,4.68 0.432,1.081 0.936,2.017 1.368,3.097 0.864,2.376 1.656,4.68 2.448,7.056 0.72,2.089 1.368,4.249 2.016,6.337 0.792,2.448 1.584,4.896 2.449,7.273 1.296,3.816 2.52,7.704 3.816,11.521 0.144,0.504 0.504,1.008 0.864,1.368 -2.88,-10.801 -6.625,-21.242 -9.721,-32.043 0.504,0.432 1.008,0.864 1.368,1.368 2.88,3.384 5.113,7.201 7.201,11.017 0.72,1.224 1.368,2.52 2.088,3.744 0.144,0.216 0.432,0.288 0.648,0.432 0.072,-0.072 0.216,-0.144 0.288,-0.288 -0.504,-1.008 -0.936,-2.088 -1.512,-3.024 -1.512,-2.664 -2.952,-5.328 -4.68,-7.849 -1.801,-2.52 -3.457,-5.256 -6.121,-7.128 -0.72,-0.504 -0.792,-1.8 -1.296,-2.664 -1.008,-1.801 -0.432,-3.601 -0.072,-5.401 0.792,-3.672 1.512,-7.345 2.088,-11.017 0.72,-4.32 2.448,-8.065 5.401,-11.305 2.88,-3.24 5.76,-6.481 8.712,-9.649 1.513,-1.584 3.313,-2.952 4.969,-4.464 0.936,-0.864 1.872,-1.729 2.808,-2.593 0,-0.072 -0.072,-0.144 -0.072,-0.288 -0.432,0.216 -0.936,0.36 -1.296,0.648 -1.728,1.441 -3.456,2.809 -5.04,4.393 -2.737,2.736 -5.401,5.616 -8.065,8.497 -1.656,1.8 -3.169,3.672 -4.969,5.76 0.792,-1.944 1.512,-3.6 2.233,-5.256 0.792,-1.729 1.656,-3.385 2.52,-5.041 0.864,-1.656 1.728,-3.24 2.736,-4.824 1.008,-1.584 2.016,-3.097 3.168,-4.537 1.152,-1.512 2.449,-2.808 3.601,-4.32 1.08,-1.368 2.664,-2.232 3.672,-3.672 -0.072,-0.144 -0.216,-0.216 -0.288,-0.36 -0.504,0.36 -1.08,0.72 -1.512,1.152 -3.673,3.384 -6.697,7.272 -9.361,11.521 -3.312,5.328 -6.121,10.873 -8.137,16.777 -1.08,3.169 -1.656,6.553 -2.304,9.865 -0.72,3.24 -1.296,6.553 -1.944,9.793 0,0.144 -0.072,0.216 -0.216,0.504 -0.432,-0.864 -0.864,-1.584 -1.152,-2.376 -0.576,-1.512 -1.008,-3.168 -1.729,-4.609 -0.72,-1.296 -1.728,-2.448 -2.664,-3.672 -0.144,-0.216 -0.288,-0.576 -0.36,-0.864 -0.144,-0.576 -0.504,-0.72 -1.008,-0.504 -2.304,0.936 -4.536,1.944 -6.769,2.952 -0.432,0.216 -0.72,0.216 -0.936,-0.216 -0.72,-2.088 -1.44,-4.104 -2.16,-6.192 -0.216,-0.648 -0.36,-1.296 -0.648,-1.872 -1.08,-2.233 -1.152,-4.681 -1.512,-7.057 -0.432,-2.664 -0.72,-5.401 -1.08,-8.137 -0.36,-2.808 -0.72,-5.688 -1.08,-8.497 -0.072,-0.576 0.072,-0.936 0.576,-1.224 2.448,-1.584 4.896,-3.24 7.201,-4.968 2.16,-1.584 4.248,-3.313 6.264,-5.113 2.376,-2.16 4.537,-4.536 7.057,-6.552 1.008,-0.864 2.016,-1.584 2.88,-2.593 0.864,-1.008 0.864,-1.008 -0.144,-1.872 0,-0.144 0.072,-0.216 0.072,-0.36 z"
           inkscape:connector-curvature="0"
           style="fill:#facbce" />
        <path
           id="path63699"
           d="m 79.019,204.434 c -0.792,1.44 -1.656,3.024 -2.448,4.608 -1.224,2.593 -2.376,5.185 -3.456,7.849 -1.944,4.752 -3.745,9.649 -5.761,14.401 -1.512,3.601 -3.096,7.057 -4.752,10.585 -0.936,2.017 -1.944,4.033 -3.096,5.833 -1.585,2.448 -3.457,4.752 -5.905,6.408 -1.152,0.721 -2.592,1.081 -3.888,1.585 -0.432,0.144 -0.936,0.288 -1.296,0.504 -1.585,1.296 -3.601,1.44 -5.401,1.944 -1.8,0.504 -3.744,0.504 -5.616,0.864 -2.089,0.36 -3.529,-0.864 -4.825,-2.16 -1.8,-1.8 -3.456,-3.745 -5.112,-5.617 -0.72,-0.864 -1.441,-1.8 -2.017,-2.736 -1.368,-2.304 -2.88,-4.608 -3.96,-7.057 -1.008,-2.376 -1.728,-4.968 -2.304,-7.488 -1.08,-4.465 -2.16,-9.001 -3.024,-13.538 -0.865,-4.392 -1.585,-8.784 -2.305,-13.177 -0.648,-3.816 -1.152,-7.705 -1.8,-11.521 -0.72,-4.32 -1.584,-8.569 -2.304,-12.889 -0.144,-0.648 -0.072,-1.296 -0.144,-1.872 -0.216,-2.017 -0.216,-4.033 -0.648,-5.905 -0.216,-1.008 -1.08,-1.872 -1.8,-2.736 -0.648,-0.792 -1.08,-1.728 -1.08,-2.736 0,-4.681 0.792,-9.217 1.584,-13.754 0.576,-3.24 1.8,-6.336 3.888,-9.001 0.792,-1.08 1.368,-2.304 2.088,-3.384 1.656,-2.448 3.313,-4.896 5.113,-7.2 0.936,-1.225 2.304,-1.873 3.888,-2.161 2.376,-0.504 4.753,-1.224 7.057,-1.872 0.504,-0.144 1.08,-0.072 1.584,-0.144 0.432,0 0.792,-0.072 1.224,-0.504 0.432,-0.432 1.224,-0.36 1.8,-0.576 1.224,-0.504 2.448,-1.008 3.601,-1.44 0.792,1.296 1.512,2.664 2.448,3.888 0.648,0.792 1.512,1.512 2.376,1.944 1.296,0.721 2.016,1.801 2.592,3.025 0.72,1.368 1.368,2.736 2.232,3.96 2.737,3.816 5.905,7.129 9.793,9.721 2.089,1.368 4.393,2.448 6.625,3.6 0.288,0.144 0.648,0.288 1.008,0.432 -0.216,0.504 -0.36,0.864 -0.576,1.296 -1.296,3.025 -2.592,5.977 -3.96,9.001 -1.296,2.809 -2.593,5.545 -3.889,8.353 -1.728,3.744 -3.528,7.417 -5.328,11.161 -0.576,1.152 -0.648,1.08 -1.872,0.72 -1.296,-0.36 -2.665,-0.504 -4.033,-0.648 -0.144,0 -0.432,0.432 -0.576,0.72 -0.576,1.368 -1.152,2.808 -1.8,4.177 -0.072,0 -0.216,-0.072 -0.288,-0.072 -0.144,-0.72 -0.36,-1.441 -0.432,-2.161 -0.504,-4.608 -2.016,-8.928 -3.384,-13.393 -0.936,-3.24 -1.729,-6.48 -2.665,-9.721 -0.072,-0.288 -0.144,-0.576 -0.216,-0.792 -0.864,-2.736 -1.872,-5.472 -2.448,-8.281 -0.936,-4.608 -3.384,-8.568 -5.472,-12.673 -0.432,-0.864 -1.08,-1.512 -1.729,-2.304 -0.216,-0.216 -0.504,-0.36 -0.936,-0.432 1.873,2.88 3.745,5.76 4.969,9.001 1.152,3.24 2.304,6.408 3.456,9.793 -3.816,-3.097 -7.417,-5.977 -11.017,-8.929 -0.072,0 -0.072,0.072 -0.144,0.072 0.432,0.504 0.792,1.08 1.224,1.44 2.016,1.728 4.033,3.312 6.049,5.112 1.44,1.225 2.808,2.521 4.032,3.889 0.504,0.576 0.648,1.44 0.864,2.16 1.656,6.121 3.457,12.241 5.041,18.362 0.72,2.808 0.936,5.76 1.728,8.569 0.504,1.944 -0.576,3.24 -1.368,4.752 -1.368,2.664 -2.808,5.329 -4.177,7.993 -0.504,0.936 -1.008,1.872 -1.512,2.736 -0.072,0.144 -0.216,0.288 -0.36,0.432 -2.88,2.592 -5.832,5.113 -8.713,7.705 -1.368,1.224 -2.304,2.88 -2.952,4.608 -0.072,0.072 0,0.216 0,0.504 1.656,-2.016 3.168,-4.032 4.897,-5.832 1.728,-1.8 3.744,-3.385 5.688,-5.041 0.072,0.072 0.144,0.072 0.216,0.144 -0.144,0.216 -0.216,0.504 -0.36,0.72 -2.88,4.537 -4.968,9.433 -7.201,14.258 -0.144,0.288 -0.288,0.576 -0.216,0.792 0,0.144 0.576,0.36 0.576,0.36 0.433,-0.504 0.865,-0.936 1.081,-1.512 0.36,-0.792 0.432,-1.729 0.792,-2.521 1.296,-2.736 2.52,-5.472 4.248,-7.992 1.152,-1.729 1.872,-3.817 2.88,-5.689 1.872,-3.672 3.745,-7.345 5.761,-10.945 1.224,-2.304 2.592,-4.536 3.96,-6.841 0.144,-0.288 0.36,-0.576 0.648,-0.936 9.217,9.361 20.45,14.258 33.267,16.274 z"
           inkscape:connector-curvature="0"
           style="fill:#facbce" />
        <path
           id="path63701"
           d="m 89.1,71.293 c 0.792,-1.08 1.728,-2.16 2.377,-3.312 1.512,-2.664 2.664,-5.544 3.456,-8.497 0.072,-0.216 0.072,-0.432 0.144,-0.504 0.792,-0.792 1.656,-1.512 2.52,-2.304 0.432,1.152 0.72,2.16 1.152,3.024 0.792,1.585 1.656,3.241 2.592,4.753 1.225,2.016 2.377,4.032 3.889,5.904 2.088,2.665 4.392,5.041 7.561,6.553 1.512,0.72 2.952,1.656 4.464,2.52 -0.288,0.648 -0.432,1.08 -1.296,0.936 -0.936,-0.144 -1.44,0.864 -1.872,1.512 -1.729,3.025 -3.097,6.193 -4.321,9.505 -1.08,2.881 -2.448,5.689 -3.672,8.569 -0.72,1.728 -1.512,3.384 -1.872,5.257 -0.36,1.8 -1.08,3.6 -2.016,5.184 -0.505,0.936 -1.657,1.584 -2.593,2.304 -3.816,3.025 -7.848,5.833 -10.585,9.937 -0.864,1.296 -1.512,2.881 -2.16,4.321 -0.504,1.152 -0.792,1.224 -2.016,1.296 -2.16,0.144 -2.592,-1.584 -3.312,-2.881 -1.224,-2.304 -2.809,-4.248 -4.897,-5.76 -1.872,-1.368 -3.672,-2.808 -5.544,-4.104 -1.873,-1.297 -3.817,-2.521 -5.617,-3.817 -1.944,-1.44 -3.456,-3.24 -4.68,-5.256 -0.504,-0.864 -1.224,-1.728 -1.728,-2.593 -0.649,-1.08 -1.225,-2.232 -1.873,-3.312 -0.72,-1.224 -1.512,-2.376 -2.088,-3.6 -1.368,-2.952 -2.448,-5.977 -3.888,-8.857 -0.936,-1.944 -2.088,-3.816 -4.033,-4.896 -0.288,-0.144 -0.648,-0.072 -1.008,-0.144 -0.432,0 -1.08,0.072 -1.008,-0.649 0,-0.648 -0.504,-1.584 0.648,-1.8 2.233,-0.432 4.465,-0.864 6.697,-1.08 1.152,-0.072 2.304,0.36 3.456,0.648 0.216,0.072 0.36,0.144 0.576,0.144 1.728,-0.216 3.457,-0.288 5.113,-0.648 2.304,-0.576 4.68,-1.008 6.84,-2.232 2.377,-1.44 4.897,-2.664 7.273,-4.032 1.728,-0.936 3.384,-1.873 5.329,-2.953 -1.081,1.08 -1.945,2.089 -2.881,3.025 -0.936,0.936 -1.8,1.944 -2.808,2.88 -1.008,0.936 -2.016,1.872 -3.096,2.664 -1.08,0.792 -2.232,1.44 -3.457,2.232 1.729,-0.072 2.881,-1.008 4.105,-1.872 3.6,-2.448 6.336,-5.832 9.289,-9.001 1.44,-1.584 3.024,-3.024 4.536,-4.608 0.072,0.072 0.216,0.144 0.288,0.216 -0.288,0.36 -0.504,0.792 -0.792,1.152 -3.096,4.032 -6.265,8.065 -9.361,12.169 -0.432,0.576 -0.936,1.224 -2.016,0.864 0.504,0.936 -0.072,1.368 -0.648,1.8 -1.008,0.793 -2.016,1.513 -2.952,2.305 1.872,-0.216 2.952,-1.584 4.392,-2.593 0.936,2.233 1.872,4.465 2.88,6.625 1.368,3.168 0.792,6.337 0.144,9.505 -0.072,0.216 0.072,0.432 0.072,0.648 0.216,-0.144 0.504,-0.288 0.576,-0.504 0.36,-1.08 0.72,-2.088 0.864,-3.24 0.145,-1.729 0.289,-3.601 0.073,-5.329 -0.145,-1.152 -0.937,-2.232 -1.441,-3.384 -0.72,-1.584 -1.584,-3.168 -2.232,-4.825 -0.144,-0.288 0.288,-0.936 0.576,-1.296 1.152,-1.368 2.52,-2.592 3.601,-4.032 2.664,-3.6 5.184,-7.273 7.848,-10.945 0.144,-0.144 0.288,-0.36 0.432,-0.504 1.728,-0.936 3.169,-2.232 4.393,-3.745 0.072,-0.072 0.216,-0.144 0.504,-0.288 -0.936,2.737 -1.872,5.329 -3.313,7.705 -0.576,0.864 -1.224,1.728 -1.584,2.664 -0.216,0.432 0,1.297 0.288,1.657 1.224,1.224 2.737,2.376 4.465,2.376 2.664,0.072 5.04,1.296 7.56,1.584 2.233,0.288 4.465,0.36 6.697,0.576 0.216,0 0.504,-0.072 0.72,-0.144 0.144,-0.072 0.216,-0.288 0.36,-0.432 -0.144,-0.144 -0.36,-0.36 -0.504,-0.36 -3.384,0 -6.552,-1.296 -9.865,-1.944 -1.8,-0.36 -3.528,-1.008 -5.256,-1.584 -0.288,-0.072 -0.648,-0.36 -0.864,-0.576 -0.432,-0.433 -0.792,-0.649 -1.368,-0.072 -0.36,0.432 -0.937,0.432 -1.441,-0.072 -0.216,-0.217 -0.504,-0.361 -0.72,-0.505 z m 16.274,16.634 v 0 c 0.072,-0.072 0.144,-0.144 0.216,-0.216 -0.576,-0.792 -1.224,-1.584 -1.8,-2.376 0.576,-0.648 1.152,-0.72 1.728,-0.216 0.288,0.216 0.72,0.432 1.08,0.648 0.432,0.144 0.864,0.288 1.224,0.36 -0.216,-0.36 -0.504,-0.72 -0.72,-1.008 -0.288,-0.36 -0.936,-0.72 -0.936,-1.152 -0.144,-0.864 -0.144,-1.008 -1.008,-0.648 -0.792,0.36 -1.512,0.864 -2.304,1.152 -2.305,0.936 -4.753,1.296 -7.201,1.008 -1.08,-0.144 -2.088,-0.648 -3.096,-1.008 -0.288,-0.072 -0.72,-0.216 -0.864,-0.072 -0.216,0.216 -0.36,0.72 -0.288,0.936 0.288,0.576 0.72,1.008 1.152,1.512 -0.936,1.008 -1.873,2.016 -2.881,3.096 0.072,0.072 0.072,0.144 0.144,0.216 0.216,-0.072 0.504,-0.144 0.648,-0.288 0.721,-0.576 1.441,-1.224 2.161,-1.8 0.648,-0.576 1.296,-1.224 2.376,-0.864 -0.432,1.152 -0.792,2.304 -1.224,3.456 0.36,0 0.576,-0.072 0.72,-0.216 0.432,-0.864 0.936,-1.656 1.224,-2.52 0.288,-0.864 0.936,-0.936 1.584,-0.864 0.288,0.072 0.576,0.576 0.648,0.936 0.216,0.576 0.288,1.224 0.432,1.872 0.072,0.288 0.288,0.504 0.36,0.72 0.072,0 0.216,-0.072 0.288,-0.072 -0.072,-1.224 -0.216,-2.448 -0.288,-3.6 0.936,-0.432 1.44,-0.288 1.656,0.648 0.144,0.576 0.504,1.08 0.864,1.584 0.144,0.288 0.505,0.432 0.721,0.648 0.072,-0.072 0.144,-0.144 0.216,-0.216 -0.432,-1.08 -0.793,-2.16 -1.153,-3.168 1.009,-0.576 1.729,-0.576 2.377,0.36 0.288,0.36 0.648,0.72 1.008,1.008 0.216,0.144 0.504,0.216 0.792,0.288 z m -36.58,0.072 v 0 c 1.009,-0.432 1.297,0.288 1.729,0.792 0.36,0.432 0.648,0.864 1.368,0.504 -0.144,-0.216 -0.288,-0.504 -0.432,-0.72 -0.504,-0.432 -0.72,-0.864 -0.144,-1.44 0.072,-0.072 -0.216,-0.72 -0.432,-0.72 -0.432,-0.072 -0.864,0 -1.296,0.144 -2.377,0.72 -4.681,0.504 -6.913,-0.36 -1.44,-0.504 -2.592,-1.584 -3.961,-2.448 -0.216,-0.144 -0.72,-0.216 -0.864,-0.072 -0.144,0.144 -0.216,0.576 -0.144,0.864 0.144,0.432 0.504,0.72 0.72,1.152 -1.008,1.008 -1.944,2.016 -2.952,3.096 0.072,0.072 0.144,0.144 0.216,0.288 0.36,-0.144 0.72,-0.288 1.008,-0.504 0.792,-0.576 1.512,-1.224 2.305,-1.872 0.504,-0.432 0.936,-0.432 1.368,0.144 -0.432,1.008 -1.368,1.728 -1.512,2.952 0.648,-0.432 1.152,-0.864 1.584,-1.44 0.864,-1.08 0.936,-1.08 2.16,-0.504 0.216,0.792 -0.936,1.584 0,2.664 0.432,-1.08 0.864,-1.944 1.224,-2.808 0.504,0.144 0.936,0.288 1.512,0.432 0,0.576 -0.072,1.152 -0.072,1.728 0,0.288 0.216,0.504 0.288,0.72 0.144,-0.216 0.432,-0.36 0.504,-0.648 0.144,-0.576 0.144,-1.224 0.216,-1.8 1.296,-0.144 1.296,-0.144 1.584,1.008 0.072,0.288 0.36,0.576 0.576,0.864 0.072,-0.36 0.144,-0.648 0.216,-1.008 0,-0.36 -0.072,-0.648 -0.072,-1.008 z m 21.962,26.642 v 0 c 1.369,0 2.593,0.073 3.745,0 0.288,0 0.648,-0.432 0.792,-0.72 0.072,-0.144 -0.36,-0.648 -0.576,-0.648 -0.792,0 -1.656,0.072 -2.448,0.216 -2.089,0.288 -4.177,0.576 -6.337,0.792 -2.376,0.288 -4.752,0.216 -7.201,-0.288 -2.232,-0.504 -4.536,-0.504 -6.768,-0.72 -0.576,-0.072 -0.792,0.432 -0.504,0.792 0.216,0.36 0.72,0.576 1.152,0.649 0.504,0.072 1.008,0 1.512,0 1.8,0 3.672,-0.217 5.4,0.432 1.657,0.576 3.313,0.648 5.041,0.288 2.088,-0.504 4.104,-0.937 6.048,-0.648 z m 7.417,-30.89 v 0 c 1.44,-0.36 2.88,-0.648 4.249,-1.08 0.288,-0.072 0.504,-0.505 0.72,-0.793 -0.36,-0.072 -0.648,-0.288 -1.008,-0.288 -0.288,0 -0.577,0.144 -0.937,0.288 -2.448,0.793 -4.896,0.721 -7.344,-0.288 -0.288,-0.144 -0.648,0 -1.008,0.072 0.144,0.288 0.288,0.865 0.504,0.937 1.584,0.432 3.168,0.792 4.752,1.152 z M 68.29,84.327 v 0 c 0,-0.072 0,-0.072 0.072,-0.144 0.36,-0.072 0.792,-0.144 1.08,-0.288 0.145,-0.072 0.217,-0.36 0.289,-0.576 -0.216,-0.072 -0.433,-0.288 -0.577,-0.288 -2.448,0.288 -4.824,0 -7.128,-0.937 -0.432,-0.144 -0.936,-0.36 -1.008,0.36 0,0.217 0.432,0.721 0.648,0.793 2.232,0.432 4.392,0.72 6.624,1.08 z m 14.978,27.794 v 0 c 0,0.072 0,0.072 0,0.144 0.648,-0.072 1.296,-0.144 1.872,-0.36 0.216,-0.072 0.216,-0.576 0.288,-0.936 -0.288,-0.072 -0.576,-0.144 -0.936,-0.144 -0.432,0 -0.864,0.216 -1.224,0.216 -0.432,0 -0.864,-0.144 -1.296,-0.144 -0.288,0.072 -0.576,0.36 -0.864,0.504 0.216,0.216 0.432,0.504 0.648,0.576 0.432,0.144 0.936,0.072 1.44,0.072 z m -2.016,-5.4 v 0 c -0.072,-0.144 -0.144,-0.216 -0.216,-0.36 -0.144,-0.216 -0.216,-0.504 -0.432,-0.72 -0.577,-0.504 -1.153,-1.008 -1.801,-1.44 -0.216,-0.144 -0.576,-0.072 -0.936,-0.072 0.072,0.288 0.072,0.648 0.288,0.864 0.432,0.576 0.936,1.08 1.44,1.656 0.216,0.216 0.504,0.504 0.721,0.432 0.288,0 0.576,-0.288 0.936,-0.432 z m 3.24,14.185 v 0 c 0.072,0 0.36,0.072 0.432,-0.072 0.216,-0.36 0.432,-0.72 0.576,-1.08 -0.216,-0.144 -0.648,-0.432 -0.72,-0.36 -0.648,0.576 -1.296,0.216 -1.944,0.072 -0.288,-0.072 -0.576,0.216 -0.864,0.36 0.216,0.288 0.36,0.648 0.648,0.792 0.576,0.144 1.152,0.144 1.872,0.216 z m 3.528,-15.697 v 0 c -0.216,-0.288 -0.288,-0.504 -0.432,-0.576 -0.36,-0.072 -0.792,-0.216 -1.08,0 -0.504,0.288 -0.936,0.792 -1.296,1.224 -0.144,0.288 -0.072,0.72 -0.144,1.08 0.36,-0.144 0.72,-0.288 1.008,-0.432 0.432,-0.288 0.792,-0.576 1.224,-0.864 0.216,-0.144 0.432,-0.216 0.648,-0.432 z"
           inkscape:connector-curvature="0"
           style="fill:#fdddcf" />
        <path
           id="path63703"
           d="m 42.008,97.792 c 0.288,1.512 0.576,2.952 0.936,4.392 0.792,3.385 1.584,6.697 2.304,10.081 0.504,2.376 1.008,4.753 1.512,7.129 0.072,0.432 0.216,0.792 0.36,1.152 0.072,0.216 0.288,0.288 0.504,0.432 0.072,-0.216 0.288,-0.432 0.288,-0.648 -0.288,-1.872 -0.504,-3.672 -0.864,-5.544 -0.504,-2.521 -1.224,-5.041 -1.8,-7.633 -0.72,-3.096 -1.44,-6.193 -2.088,-9.289 -0.288,-1.584 -0.576,-3.096 -0.72,-4.681 -0.216,-2.16 -0.36,-4.32 -0.36,-6.48 0,-0.72 0,-1.512 0.936,-2.016 0.144,1.152 0.144,2.232 0.432,3.312 0.72,3.024 1.44,5.977 2.304,8.929 1.512,5.472 3.097,10.945 4.681,16.489 0.216,0.72 0.288,1.513 0.504,2.233 0.144,0.432 0.36,0.792 0.576,1.224 0.144,0 0.216,0 0.36,0 0.072,-0.36 0.288,-0.72 0.216,-1.008 -0.432,-1.945 -0.864,-3.889 -1.368,-5.833 -0.504,-1.872 -1.08,-3.744 -1.584,-5.544 -0.72,-2.449 -1.513,-4.897 -2.161,-7.345 -0.792,-3.024 -1.512,-6.049 -2.232,-9.145 -0.288,-1.224 -0.504,-2.52 -0.072,-4.032 0.144,0.288 0.288,0.432 0.36,0.576 1.08,3.168 2.232,6.336 3.169,9.505 0.864,2.952 2.664,5.472 3.096,8.568 0.072,0.432 0.288,0.864 0.504,1.224 1.44,2.377 1.944,5.041 2.592,7.705 0.216,0.864 0.36,1.728 1.44,2.232 0,-0.432 0.072,-0.72 0,-1.008 -0.648,-2.232 -1.296,-4.392 -2.016,-6.624 -0.216,-0.576 -0.432,-1.224 -0.792,-1.728 -0.864,-1.225 -1.224,-2.593 -1.584,-4.033 -0.288,-1.296 -0.936,-2.52 -1.44,-3.744 -1.08,-3.024 -2.161,-6.049 -3.169,-9.145 -0.288,-0.936 -0.576,-1.872 -0.72,-2.808 -0.144,-0.792 0.288,-1.08 1.008,-0.648 0.432,0.288 0.792,0.648 1.153,1.008 1.368,1.656 2.16,3.6 3.024,5.544 1.224,2.881 2.664,5.689 4.032,8.497 0.936,1.8 1.944,3.672 3.024,5.329 1.369,2.016 2.665,4.104 4.321,5.832 1.224,1.368 2.88,2.376 4.392,3.456 1.944,1.369 4.105,2.449 5.905,3.961 2.376,1.944 5.04,3.744 6.768,6.336 0.721,1.08 1.081,2.305 1.873,3.313 1.584,2.16 2.592,4.536 3.6,6.984 0.144,0.36 0.288,0.792 0.36,1.152 0.288,1.657 0.576,3.385 0.936,5.041 0.288,1.368 -0.432,2.52 -0.792,3.744 -0.36,1.152 -0.864,2.304 -1.224,3.457 -1.008,3.024 -1.944,6.12 -2.88,9.144 -1.296,4.105 -2.665,8.137 -3.745,12.242 -0.936,3.24 -1.512,6.552 -2.304,9.792 -0.432,1.801 -1.008,3.601 -1.44,5.401 -1.08,4.68 -2.016,9.361 -2.736,14.041 -0.144,0.936 -0.144,1.8 -0.288,2.881 -0.576,-0.216 -1.08,-0.36 -1.512,-0.505 -2.017,-0.72 -4.105,-1.368 -6.049,-2.232 -2.52,-1.08 -5.041,-2.232 -7.417,-3.672 -1.944,-1.152 -3.744,-2.736 -5.544,-4.176 -0.144,-0.144 -0.288,-0.504 -0.144,-0.72 1.944,-4.105 3.96,-8.137 5.904,-12.242 1.944,-4.032 3.817,-8.136 5.689,-12.241 1.8,-4.032 3.672,-8.065 5.4,-12.169 0.648,-1.584 1.224,-3.24 1.656,-4.896 0.216,-0.864 0.072,-1.801 -0.072,-2.737 -0.216,-1.944 -0.432,-3.96 -1.44,-5.76 -0.504,-0.936 -1.224,-1.728 -1.944,-2.52 -1.008,-1.081 -2.016,-2.089 -3.096,-3.097 -1.152,-1.008 -2.376,-1.944 -3.528,-2.952 -1.009,-0.864 -1.873,-1.8 -2.881,-2.592 -1.584,-1.296 -3.312,-2.448 -4.968,-3.745 -1.8,-1.368 -3.169,-3.096 -4.465,-5.04 -1.656,-2.592 -2.952,-5.257 -3.312,-8.281 -0.36,-2.808 -0.792,-5.616 -1.08,-8.497 -0.144,-1.872 0,-3.816 0,-5.832 z"
           inkscape:connector-curvature="0"
           style="fill:#fdddcf" />
        <path
           id="path63705"
           d="m 120.207,80.294 c 1.224,0 1.728,0.72 1.656,2.233 -0.144,1.8 -0.36,3.6 -0.576,5.4 -0.36,3.24 -0.792,6.481 -1.224,9.721 -0.432,3.888 -0.864,7.849 -1.368,11.737 -0.144,1.296 -0.72,2.52 -1.008,3.744 -0.072,0.36 0.144,0.792 0.216,1.152 0.288,-0.288 0.648,-0.576 0.792,-0.864 1.656,-3.96 1.44,-8.28 1.944,-12.457 0.288,-2.376 0.72,-4.752 1.008,-7.128 0.288,-2.017 0.432,-4.105 0.72,-6.121 0.072,-0.36 0.144,-0.648 0.216,-1.008 0.072,0 0.144,0 0.216,0 0.072,2.736 0.432,5.472 0.216,8.209 -0.36,4.896 -0.792,9.721 -1.512,14.545 -0.792,5.184 -2.52,10.081 -5.328,14.545 -2.664,4.249 -5.257,8.497 -7.777,12.89 -1.872,3.24 -3.6,6.696 -4.392,10.369 -0.288,1.44 -0.504,3.024 -0.36,4.536 0.432,4.248 1.008,8.425 1.584,12.601 0.432,3.096 0.864,6.193 1.224,9.361 0.288,2.808 1.08,5.401 2.016,7.993 1.152,3.168 2.304,6.336 3.456,9.433 0.144,0.504 0.216,0.864 -0.36,1.152 -2.952,1.224 -5.904,2.52 -8.856,3.744 -2.377,1.008 -4.825,2.016 -7.201,3.024 -0.72,0.288 -1.44,0.648 -2.376,1.008 -0.288,-2.448 -0.576,-4.824 -0.864,-7.2 -0.36,-3.169 -0.792,-6.265 -1.152,-9.433 -0.145,-0.936 -0.072,-1.872 -0.145,-2.88 -0.216,-3.313 -0.432,-6.553 -0.576,-9.865 -0.144,-2.737 -0.288,-5.545 -0.432,-8.281 -0.072,-1.296 -0.216,-2.592 -0.36,-3.888 -0.36,-3.025 -0.72,-6.121 -1.152,-9.145 -0.072,-0.72 -0.288,-1.512 -0.36,-2.232 -0.288,-1.873 -0.504,-3.745 -0.72,-5.617 -0.144,-1.152 -0.432,-2.304 -0.648,-3.384 -0.864,-4.465 -0.36,-8.785 1.728,-12.89 0.936,-1.8 2.16,-3.672 3.601,-5.112 2.664,-2.52 5.544,-4.968 8.568,-7.057 1.873,-1.296 2.809,-2.952 3.457,-5.04 1.152,-4.032 2.52,-7.921 4.608,-11.665 0.864,-1.512 1.368,-3.241 1.872,-4.897 1.008,-3.24 2.521,-6.264 4.177,-9.145 0.216,-0.36 0.648,-0.576 1.008,-0.864 0.288,0.504 0.792,0.936 0.792,1.441 0.072,0.864 -0.072,1.728 -0.36,2.52 -1.872,5.328 -3.312,10.801 -4.321,16.417 -0.576,2.881 -0.864,5.833 -1.296,8.785 0,0.288 0.288,0.576 0.432,0.864 0.216,-0.216 0.576,-0.432 0.576,-0.72 0.432,-2.736 0.864,-5.472 1.297,-8.137 0.36,-2.304 0.648,-4.68 1.224,-6.912 0.72,-2.809 1.728,-5.545 2.664,-8.353 0.576,-1.872 1.584,-3.744 0.648,-5.761 -0.216,-0.504 -0.216,-0.864 0.216,-1.152 0.216,-0.216 0.648,-0.432 0.864,-0.36 0.36,0.144 0.792,0.576 0.792,0.936 0.072,1.441 0.072,2.881 -0.144,4.249 -0.36,2.952 -0.864,5.904 -1.368,8.857 -0.432,2.52 -0.936,4.968 -1.368,7.488 -0.216,1.512 -0.288,3.025 -0.504,4.537 -0.288,1.872 -0.72,3.744 -1.152,5.544 -0.144,0.504 -0.288,1.08 0.36,1.224 0.144,0 0.576,-0.576 0.72,-0.936 0.792,-2.592 1.152,-5.256 1.368,-7.92 0.216,-2.953 1.008,-5.833 1.44,-8.785 0.576,-3.601 1.08,-7.201 1.656,-10.801 0.144,-1.08 0.36,-2.161 -0.072,-3.241 -0.144,-0.288 0,-0.648 0,-1.008 z"
           inkscape:connector-curvature="0"
           style="fill:#fdddcf" />
        <path
           id="path63707"
           d="m 104.942,153.813 c 0,-1.728 -0.144,-3.24 0,-4.752 0.36,-3.313 1.44,-6.409 3.168,-9.289 1.656,-2.88 3.312,-5.761 4.969,-8.641 0.72,-1.224 1.368,-2.448 2.16,-3.888 2.088,1.512 3.96,3.096 6.048,4.248 2.089,1.224 4.393,2.016 6.769,3.096 -6.625,7.561 -14.329,13.826 -23.114,19.154 z"
           inkscape:connector-curvature="0"
           style="fill:#fdddcf" />
        <path
           id="path63709"
           d="m 29.551,71.87 c -0.432,2.736 -0.936,5.472 -1.368,8.208 -0.72,4.393 -1.08,8.857 -0.792,13.322 0.288,5.256 1.296,10.296 4.248,14.833 0.216,0.36 0.432,0.72 0.72,1.008 0.72,0.648 0.936,1.44 0.864,2.376 -0.072,2.016 0,4.105 0,6.193 -0.36,-0.216 -0.864,-0.504 -1.152,-0.864 -1.944,-2.232 -3.816,-4.537 -5.328,-7.201 -1.297,-2.304 -2.665,-4.464 -3.457,-6.985 -0.36,-1.008 -0.648,-2.088 -0.576,-3.096 0.288,-7.489 0.792,-14.977 3.817,-22.034 0.864,-1.944 1.872,-3.888 2.736,-5.832 0.072,0 0.144,0.072 0.288,0.072 z"
           inkscape:connector-curvature="0"
           style="fill:#7a563b" />
        <path
           id="path63711"
           d="m 66.202,148.629 c -1.224,0.144 -1.8,-0.072 -2.376,-1.224 -1.512,-3.097 -1.944,-6.121 0.144,-8.713 0.072,-0.072 0.144,-0.216 0.216,-0.432 1.512,1.728 2.448,3.456 3.024,5.4 0.504,1.8 0.792,3.601 0.36,5.473 -0.288,1.152 -0.792,2.232 -1.152,3.312 -0.288,0.72 -0.504,1.512 -0.72,2.232 -7.561,-1.728 -17.641,-11.377 -19.082,-16.705 1.513,0.36 2.953,0.936 4.465,1.08 1.512,0.144 3.096,-0.144 4.752,-0.216 -0.576,1.944 -0.792,3.816 0.648,5.328 0.504,0.504 1.224,0.72 2.016,0.936 -0.288,-1.08 -1.152,-1.872 -0.648,-2.952 0.36,-0.936 0.72,-1.944 1.225,-2.808 -0.577,2.592 0.072,4.896 1.512,6.984 0.288,0.432 0.72,0.937 1.152,1.225 0.936,0.72 1.944,1.368 3.024,2.016 0.792,0.432 1.296,0.144 1.512,-0.792 z"
           inkscape:connector-curvature="0"
           style="fill:#fdddcf" />
        <path
           id="path63713"
           d="m 88.74,158.71 c -2.376,-0.144 -4.464,-0.288 -6.768,-0.36 1.512,-4.609 2.88,-9.001 4.32,-13.394 0.144,0 0.288,0 0.432,0 0.648,4.537 1.296,9.001 2.016,13.754 z"
           inkscape:connector-curvature="0"
           style="fill:#fdddcf" />
        <path
           id="path63715"
           d="m 130.864,127.243 c -3.744,2.376 -10.153,1.584 -12.241,-1.512 1.296,-0.793 2.592,-1.585 3.816,-2.377 2.017,2.809 4.897,3.745 8.425,3.817 z"
           inkscape:connector-curvature="0"
           style="fill:#7a563b" />
        <path
           id="path63717"
           d="m 30.631,130.483 c -1.656,-0.936 -2.016,-3.024 -0.72,-4.752 1.368,-1.729 2.736,-3.457 4.248,-5.257 0.288,0.792 0.576,1.44 0.792,2.16 0.072,0.144 0,0.36 -0.144,0.504 -0.792,1.152 -1.8,2.232 -2.448,3.529 -0.72,1.224 -1.152,2.592 -1.656,3.888 z"
           inkscape:connector-curvature="0"
           style="fill:#7a563b" />
        <path
           id="path63719"
           d="m 62.674,147.189 c -3.672,-2.809 -4.033,-8.785 -0.648,-10.946 0.432,0.433 0.936,0.937 1.368,1.369 -2.232,3.024 -2.232,6.264 -0.72,9.577 z"
           inkscape:connector-curvature="0"
           style="fill:#7a563b" />
        <path
           id="path63721"
           d="m 95.797,49.547 c -0.072,0.865 -0.144,1.729 -0.288,2.593 -0.288,1.8 -0.648,3.528 -1.008,5.328 -0.072,0.288 -0.072,0.648 -0.288,0.864 -1.296,1.368 -2.664,2.737 -4.105,4.033 2.089,-4.177 4.105,-8.353 5.329,-12.89 0.144,0 0.216,0 0.36,0.072 z"
           inkscape:connector-curvature="0"
           style="fill:#fdddcf" />
        <path
           id="path63723"
           d="m 72.395,197.953 c 2.016,1.728 3.96,3.313 5.832,4.897 -0.072,0.072 -0.072,0.144 -0.144,0.288 -0.792,-0.144 -1.656,-0.216 -2.448,-0.36 -1.08,-0.216 -2.232,-0.432 -3.312,-0.72 -0.216,-0.072 -0.504,-0.288 -0.432,-0.432 0.144,-1.153 0.36,-2.377 0.504,-3.601 z"
           inkscape:connector-curvature="0"
           style="fill:#f69b99" />
        <path
           id="path63725"
           d="m 112.43,189.024 c 2.089,-0.936 4.177,-1.8 6.337,-2.736 -0.864,2.808 -3.6,3.24 -5.4,4.897 -0.36,-0.792 -0.576,-1.369 -0.937,-2.161 z"
           inkscape:connector-curvature="0"
           style="fill:#f69b99" />
        <path
           id="path63727"
           d="m 86.508,201.986 c 1.584,-1.369 3.096,-2.737 4.681,-4.105 0.144,-0.144 0.288,-0.144 0.576,-0.288 0.216,1.008 0.432,1.944 0.648,3.024 -1.873,0.505 -3.817,1.081 -5.761,1.657 0,-0.072 -0.072,-0.144 -0.072,-0.216 z"
           inkscape:connector-curvature="0"
           style="fill:#f69b99" />
        <path
           id="path63731"
           d="m 31.783,130.195 c 0.432,-2.52 2.088,-4.32 3.528,-6.265 1.08,0.936 1.008,1.08 0.144,2.161 -0.864,1.08 -1.44,2.448 -2.232,3.6 -0.288,0.36 -0.792,0.576 -1.224,0.792 -0.072,-0.072 -0.144,-0.216 -0.288,-0.288 z"
           inkscape:connector-curvature="0"
           style="fill:#7a563b" />
        <path
           id="path63733"
           d="m 86.508,64.525 c 3.24,-4.393 5.689,-9.145 7.705,-14.258 0.072,0 0.144,0.073 0.216,0.073 -0.432,1.152 -0.792,2.376 -1.296,3.528 -1.368,2.88 -2.737,5.832 -4.177,8.641 -0.432,0.864 -1.368,1.512 -2.088,2.232 -0.072,-0.072 -0.216,-0.144 -0.288,-0.288 z"
           inkscape:connector-curvature="0"
           style="fill:#7a563b" />
        <path
           id="path63735"
           d="m 49.065,190.177 c -0.936,-1.009 -1.873,-1.945 -2.881,-3.097 1.729,-0.504 2.881,0.288 4.249,0.72 -0.432,0.792 -0.864,1.512 -1.368,2.377 z"
           inkscape:connector-curvature="0"
           style="fill:#f69b99" />
        <path
           id="path63737"
           d="m 37.039,126.307 c 0.145,0.576 0.361,1.224 0.577,1.944 -1.081,0.504 -2.161,1.008 -3.241,1.44 -0.072,-0.072 -0.144,-0.144 -0.216,-0.288 0.792,-1.08 1.656,-2.16 2.448,-3.168 0.144,0 0.288,0 0.432,0.072 z"
           inkscape:connector-curvature="0"
           style="fill:#7a563b" />
        <path
           id="path63739"
           d="m 56.769,142.868 c -1.08,-1.584 -0.216,-4.248 1.512,-4.824 -0.504,1.584 -1.08,3.24 -1.512,4.824 z"
           inkscape:connector-curvature="0"
           style="fill:#7a563b" />
        <path
           id="path63741"
           d="m 96.445,52.86 c 0.216,0.936 0.648,1.8 0.72,2.736 0.072,1.008 -0.864,1.224 -1.728,1.512 0.288,-1.44 0.576,-2.808 0.864,-4.248 0.072,0 0.144,0 0.216,0 z"
           inkscape:connector-curvature="0"
           style="fill:#fdddcf" />
        <path
           id="path63743"
           d="m 86.004,129.331 c -0.216,1.008 -0.36,1.872 -0.576,2.808 -0.432,-0.936 -0.864,-1.728 -1.296,-2.664 0.576,-0.072 1.152,-0.072 1.944,-0.144 z"
           inkscape:connector-curvature="0"
           style="fill:#bc938d" />
        <path
           id="path63745"
           d="m 97.525,32.698 c 0,1.44 0,2.952 0,4.392 -0.072,0 -0.144,0 -0.288,0 0,-1.44 0,-2.952 0,-4.392 0.072,0 0.144,0 0.288,0 z"
           inkscape:connector-curvature="0"
           style="fill:#7a563b" />
        <path
           id="path63747"
           d="m 97.093,39.466 c -0.216,1.225 -0.432,2.449 -0.72,3.673 -0.072,0 -0.144,0 -0.216,0 0.216,-1.224 0.36,-2.448 0.576,-3.601 0.072,0 0.216,0 0.288,0 z"
           inkscape:connector-curvature="0"
           style="fill:#7a563b" />
      </g>
    </g>
  </g>
</svg>
